<?xml version="1.0" encoding="UTF-8" standalone="no"?>
<svg
   height="226.56299pt"
   version="1.1"
   viewBox="0 0 298.75498 226.56298"
   width="298.75497pt"
   id="svg487"
   sodipodi:docname="model_accuracy_diagonal.svg"
   inkscape:version="1.1 (c68e22c387, 2021-05-23)"
   xmlns:inkscape="http://www.inkscape.org/namespaces/inkscape"
   xmlns:sodipodi="http://sodipodi.sourceforge.net/DTD/sodipodi-0.dtd"
   xmlns:xlink="http://www.w3.org/1999/xlink"
   xmlns="http://www.w3.org/2000/svg"
   xmlns:svg="http://www.w3.org/2000/svg"
   xmlns:rdf="http://www.w3.org/1999/02/22-rdf-syntax-ns#"
   xmlns:cc="http://creativecommons.org/ns#"
   xmlns:dc="http://purl.org/dc/elements/1.1/">
  <sodipodi:namedview
     id="namedview489"
     pagecolor="#ffffff"
     bordercolor="#666666"
     borderopacity="1.0"
     inkscape:pageshadow="2"
     inkscape:pageopacity="0.0"
     inkscape:pagecheckerboard="0"
     inkscape:document-units="pt"
     showgrid="false"
     fit-margin-top="0"
     fit-margin-left="0"
     fit-margin-right="0"
     fit-margin-bottom="0"
     inkscape:zoom="0.62301508"
     inkscape:cx="-129.21036"
     inkscape:cy="262.43346"
     inkscape:window-width="1920"
     inkscape:window-height="1001"
     inkscape:window-x="-9"
     inkscape:window-y="1491"
     inkscape:window-maximized="1"
     inkscape:current-layer="figure_1" />
  <metadata
     id="metadata2">
    <rdf:RDF>
      <cc:Work>
        <dc:type
           rdf:resource="http://purl.org/dc/dcmitype/StillImage" />
        <dc:date>2021-07-30T13:36:29.759137</dc:date>
        <dc:format>image/svg+xml</dc:format>
        <dc:creator>
          <cc:Agent>
            <dc:title>Matplotlib v3.4.2, https://matplotlib.org/</dc:title>
          </cc:Agent>
        </dc:creator>
      </cc:Work>
    </rdf:RDF>
  </metadata>
  <defs
     id="defs6">
    <style
       type="text/css"
       id="style4">*{stroke-linecap:butt;stroke-linejoin:round;}</style>
  </defs>
  <g
     id="figure_1"
     transform="translate(-70.914141,-73.410499)">
    <g
       id="pane3d_1">
      <g
         id="patch_3">
        <path
           d="M 358.87551,229.65154 238.81577,186.6098 238.78779,74.079944 362.701,109.58608"
           style="opacity:0.5;fill:#f2f2f2;stroke:#f2f2f2;stroke-linejoin:miter"
           id="path14" />
      </g>
    </g>
    <g
       id="pane3d_2">
      <g
         id="patch_4">
        <path
           d="M 120.47968,230.44725 238.81577,186.6098 238.78779,74.079944 116.64393,110.24401"
           style="opacity:0.5;fill:#e6e6e6;stroke:#e6e6e6;stroke-linejoin:miter"
           id="path18" />
      </g>
    </g>
    <g
       id="pane3d_3">
      <g
         id="patch_5">
        <path
           d="M 240.85442,280.78645 358.87551,229.65154 238.81577,186.6098 120.47968,230.44725"
           style="opacity:0.5;fill:#ececec;stroke:#ececec;stroke-linejoin:miter"
           id="path22" />
      </g>
    </g>
    <g
       id="axis3d_1">
      <g
         id="line2d_1">
        <path
           d="M 358.87551,229.65154 240.85442,280.78645"
           style="fill:none;stroke:#000000;stroke-width:0.8;stroke-linecap:square"
           id="path26" />
      </g>
      <g
         id="text_1">
        <!-- $w_b$ -->
        <g
           transform="matrix(0.09175771,-0.0397558,-0.0397558,-0.09175771,320.72638,290.28744)"
           id="g37">
          <defs
             id="defs31">
            <path
               d="m 544,3500 h 569 L 1259,684 2566,3500 h 665 L 3425,684 4666,3500 h 575 L 3641,0 H 2969 L 2797,2900 1459,0 H 781 Z"
               id="DejaVuSans-Oblique-77"
               transform="scale(0.015625)" />
            <path
               d="m 3169,2138 q 0,453 -208,709 -208,256 -573,256 -266,0 -499,-130 -233,-129 -405,-376 -181,-259 -286,-602 -104,-342 -104,-682 0,-432 204,-677 205,-245 565,-245 271,0 502,126 232,127 407,374 178,256 287,596 110,341 110,651 z m -1788,831 q 213,287 533,451 320,164 670,164 538,0 855,-363 317,-362 317,-980 0,-507 -186,-982 Q 3384,784 3041,416 2816,172 2522,40 2228,-91 1906,-91 1566,-91 1316,65 1066,222 909,531 L 806,0 H 231 l 947,4863 h 575 z"
               id="DejaVuSans-Oblique-62"
               transform="scale(0.015625)" />
          </defs>
          <use
             transform="translate(0,0.3125)"
             xlink:href="#DejaVuSans-Oblique-77"
             id="use33"
             x="0"
             y="0"
             width="100%"
             height="100%" />
          <use
             transform="matrix(0.7,0,0,0.7,81.787109,-16.09375)"
             xlink:href="#DejaVuSans-Oblique-62"
             id="use35"
             x="0"
             y="0"
             width="100%"
             height="100%" />
        </g>
      </g>
      <g
         id="Line3DCollection_1">
        <path
           d="M 248.95743,277.27567 128.55885,227.45433 125.00119,107.76961"
           style="fill:none;stroke:#b0b0b0;stroke-width:0.8"
           id="path40" />
        <path
           d="M 276.09134,265.51938 155.66157,217.41416 153.01737,99.474649"
           style="fill:none;stroke:#b0b0b0;stroke-width:0.8"
           id="path42" />
        <path
           d="M 302.26296,254.18002 181.87421,207.70372 180.08503,91.460519"
           style="fill:none;stroke:#b0b0b0;stroke-width:0.8"
           id="path44" />
        <path
           d="M 327.52258,243.2358 207.23993,198.30703 206.25155,83.713197"
           style="fill:none;stroke:#b0b0b0;stroke-width:0.8"
           id="path46" />
        <path
           d="M 351.91706,232.66642 231.7991,189.20911 231.56119,76.219578"
           style="fill:none;stroke:#b0b0b0;stroke-width:0.8"
           id="path48" />
      </g>
      <g
         id="xtick_1">
        <g
           id="line2d_2">
          <path
             d="m 247.91514,276.84437 3.13102,1.29562"
             style="fill:none;stroke:#000000;stroke-width:0.8;stroke-linecap:square"
             id="path51" />
        </g>
        <g
           id="text_2">
          <!-- 0.6 -->
          <g
             transform="matrix(0.1,0,0,-0.1,251.84188,299.692)"
             id="g65">
            <defs
               id="defs57">
              <path
                 d="m 2034,4250 q -487,0 -733,-480 -245,-479 -245,-1442 0,-959 245,-1439 246,-480 733,-480 491,0 736,480 246,480 246,1439 0,963 -246,1442 -245,480 -736,480 z m 0,500 q 785,0 1199,-621 414,-620 414,-1801 0,-1178 -414,-1799 -414,-620 -1199,-620 -784,0 -1198,620 -414,621 -414,1799 0,1181 414,1801 414,621 1198,621 z"
                 id="DejaVuSans-30"
                 transform="scale(0.015625)" />
              <path
                 d="m 684,794 h 660 V 0 H 684 Z"
                 id="DejaVuSans-2e"
                 transform="scale(0.015625)" />
              <path
                 d="m 2113,2584 q -425,0 -674,-291 -248,-290 -248,-796 0,-503 248,-796 249,-292 674,-292 425,0 673,292 248,293 248,796 0,506 -248,796 -248,291 -673,291 z m 1253,1979 v -575 q -238,112 -480,171 -242,60 -480,60 -625,0 -955,-422 -329,-422 -376,-1275 184,272 462,417 279,145 613,145 703,0 1111,-427 408,-426 408,-1160 0,-719 -425,-1154 -425,-434 -1131,-434 -810,0 -1238,620 -428,621 -428,1799 0,1106 525,1764 525,658 1409,658 238,0 480,-47 242,-47 505,-140 z"
                 id="DejaVuSans-36"
                 transform="scale(0.015625)" />
            </defs>
            <use
               xlink:href="#DejaVuSans-30"
               id="use59"
               x="0"
               y="0"
               width="100%"
               height="100%" />
            <use
               x="63.623047"
               xlink:href="#DejaVuSans-2e"
               id="use61"
               y="0"
               width="100%"
               height="100%" />
            <use
               x="95.410156"
               xlink:href="#DejaVuSans-36"
               id="use63"
               y="0"
               width="100%"
               height="100%" />
          </g>
        </g>
      </g>
      <g
         id="xtick_2">
        <g
           id="line2d_3">
          <path
             d="m 275.05021,265.1035 3.12747,1.24926"
             style="fill:none;stroke:#000000;stroke-width:0.8;stroke-linecap:square"
             id="path69" />
        </g>
        <g
           id="text_3">
          <!-- 0.9 -->
          <g
             transform="matrix(0.1,0,0,-0.1,278.88876,287.61975)"
             id="g81">
            <defs
               id="defs73">
              <path
                 d="m 703,97 v 575 q 238,-113 481,-172 244,-59 479,-59 625,0 954,420 330,420 377,1277 -181,-269 -460,-413 -278,-144 -615,-144 -700,0 -1108,423 -408,424 -408,1159 0,718 425,1152 425,435 1131,435 810,0 1236,-621 427,-620 427,-1801 Q 3622,1225 3098,567 2575,-91 1691,-91 1453,-91 1209,-44 966,3 703,97 Z m 1256,1978 q 425,0 673,290 249,291 249,798 0,503 -249,795 -248,292 -673,292 -425,0 -673,-292 -248,-292 -248,-795 0,-507 248,-798 248,-290 673,-290 z"
                 id="DejaVuSans-39"
                 transform="scale(0.015625)" />
            </defs>
            <use
               xlink:href="#DejaVuSans-30"
               id="use75"
               x="0"
               y="0"
               width="100%"
               height="100%" />
            <use
               x="63.623047"
               xlink:href="#DejaVuSans-2e"
               id="use77"
               y="0"
               width="100%"
               height="100%" />
            <use
               x="95.410156"
               xlink:href="#DejaVuSans-39"
               id="use79"
               y="0"
               width="100%"
               height="100%" />
          </g>
        </g>
      </g>
      <g
         id="xtick_3">
        <g
           id="line2d_4">
          <path
             d="m 301.22356,253.77876 3.1222,1.20533"
             style="fill:none;stroke:#000000;stroke-width:0.8;stroke-linecap:square"
             id="path85" />
        </g>
        <g
           id="text_4">
          <!-- 1.2 -->
          <g
             transform="matrix(0.1,0,0,-0.1,304.97262,275.97733)"
             id="g98">
            <defs
               id="defs90">
              <path
                 d="M 794,531 H 1825 V 4091 L 703,3866 v 575 l 1116,225 h 631 V 531 H 3481 V 0 H 794 Z"
                 id="DejaVuSans-31"
                 transform="scale(0.015625)" />
              <path
                 d="M 1228,531 H 3431 V 0 H 469 v 531 q 359,372 979,998 621,627 780,809 303,340 423,576 121,236 121,464 0,372 -261,606 -261,235 -680,235 -297,0 -627,-103 -329,-103 -704,-313 v 638 q 381,153 712,231 332,78 607,78 725,0 1156,-363 431,-362 431,-968 0,-288 -108,-546 -107,-257 -392,-607 -78,-91 -497,-524 Q 1991,1309 1228,531 Z"
                 id="DejaVuSans-32"
                 transform="scale(0.015625)" />
            </defs>
            <use
               xlink:href="#DejaVuSans-31"
               id="use92"
               x="0"
               y="0"
               width="100%"
               height="100%" />
            <use
               x="63.623047"
               xlink:href="#DejaVuSans-2e"
               id="use94"
               y="0"
               width="100%"
               height="100%" />
            <use
               x="95.410156"
               xlink:href="#DejaVuSans-32"
               id="use96"
               y="0"
               width="100%"
               height="100%" />
          </g>
        </g>
      </g>
      <g
         id="xtick_4">
        <g
           id="line2d_5">
          <path
             d="m 326.48542,242.8484 3.11539,1.16368"
             style="fill:none;stroke:#000000;stroke-width:0.8;stroke-linecap:square"
             id="path102" />
        </g>
        <g
           id="text_5">
          <!-- 1.5 -->
          <g
             transform="matrix(0.1,0,0,-0.1,330.14401,264.74219)"
             id="g114">
            <defs
               id="defs106">
              <path
                 d="M 691,4666 H 3169 V 4134 H 1269 V 2991 q 137,47 274,70 138,23 276,23 781,0 1237,-428 457,-428 457,-1159 Q 3513,744 3044,326 2575,-91 1722,-91 1428,-91 1123,-41 819,9 494,109 v 635 q 281,-153 581,-228 300,-75 634,-75 541,0 856,284 316,284 316,772 0,487 -316,771 -315,285 -856,285 -253,0 -505,-56 -251,-56 -513,-175 z"
                 id="DejaVuSans-35"
                 transform="scale(0.015625)" />
            </defs>
            <use
               xlink:href="#DejaVuSans-31"
               id="use108"
               x="0"
               y="0"
               width="100%"
               height="100%" />
            <use
               x="63.623047"
               xlink:href="#DejaVuSans-2e"
               id="use110"
               y="0"
               width="100%"
               height="100%" />
            <use
               x="95.410156"
               xlink:href="#DejaVuSans-35"
               id="use112"
               y="0"
               width="100%"
               height="100%" />
          </g>
        </g>
      </g>
      <g
         id="xtick_5">
        <g
           id="line2d_6">
          <path
             d="m 350.8826,232.29217 3.10721,1.12415"
             style="fill:none;stroke:#000000;stroke-width:0.8;stroke-linecap:square"
             id="path118" />
        </g>
        <g
           id="text_6">
          <!-- 1.8 -->
          <g
             transform="matrix(0.1,0,0,-0.1,354.44998,253.89332)"
             id="g130">
            <defs
               id="defs122">
              <path
                 d="m 2034,2216 q -450,0 -708,-241 -257,-241 -257,-662 0,-422 257,-663 258,-241 708,-241 450,0 709,242 260,243 260,662 0,421 -258,662 -257,241 -711,241 z m -631,268 q -406,100 -633,378 -226,279 -226,679 0,559 398,884 399,325 1092,325 697,0 1094,-325 397,-325 397,-884 0,-400 -227,-679 -226,-278 -629,-378 456,-106 710,-416 255,-309 255,-755 Q 3634,634 3220,271 2806,-91 2034,-91 1263,-91 848,271 434,634 434,1313 q 0,446 256,755 257,310 713,416 z m -231,997 q 0,-362 226,-565 227,-203 636,-203 407,0 636,203 230,203 230,565 0,363 -230,566 -229,203 -636,203 -409,0 -636,-203 -226,-203 -226,-566 z"
                 id="DejaVuSans-38"
                 transform="scale(0.015625)" />
            </defs>
            <use
               xlink:href="#DejaVuSans-31"
               id="use124"
               x="0"
               y="0"
               width="100%"
               height="100%" />
            <use
               x="63.623047"
               xlink:href="#DejaVuSans-2e"
               id="use126"
               y="0"
               width="100%"
               height="100%" />
            <use
               x="95.410156"
               xlink:href="#DejaVuSans-38"
               id="use128"
               y="0"
               width="100%"
               height="100%" />
          </g>
        </g>
      </g>
    </g>
    <g
       id="axis3d_2">
      <g
         id="line2d_7">
        <path
           d="m 120.47968,230.44725 120.37474,50.3392"
           style="fill:none;stroke:#000000;stroke-width:0.8;stroke-linecap:square"
           id="path135" />
      </g>
      <g
         id="text_7">
        <!-- $L$ -->
        <g
           transform="matrix(0.1,0,0,-0.1,152.53129,288.57093)"
           id="g143">
          <defs
             id="defs139">
            <path
               d="m 1075,4666 h 634 L 909,525 H 3181 L 3078,0 H 172 Z"
               id="DejaVuSans-Oblique-4c"
               transform="scale(0.015625)" />
          </defs>
          <use
             transform="translate(0,0.09375)"
             xlink:href="#DejaVuSans-Oblique-4c"
             id="use141"
             x="0"
             y="0"
             width="100%"
             height="100%" />
        </g>
      </g>
      <g
         id="Line3DCollection_2">
        <path
           d="m 354.23341,107.15977 -3.5447,119.55678 -118.08875,50.61799"
           style="fill:none;stroke:#b0b0b0;stroke-width:0.8"
           id="path146" />
        <path
           d="m 316.58231,96.371214 -2.32713,117.283816 -118.3076,48.35195"
           style="fill:none;stroke:#b0b0b0;stroke-width:0.8"
           id="path148" />
        <path
           d="m 280.58278,86.055893 -1.21036,115.093567 -118.3917,46.23482"
           style="fill:none;stroke:#b0b0b0;stroke-width:0.8"
           id="path150" />
        <path
           d="M 246.12846,76.183341 245.94348,189.1651 127.5857,233.4189"
           style="fill:none;stroke:#b0b0b0;stroke-width:0.8"
           id="path152" />
      </g>
      <g
         id="xtick_6">
        <g
           id="line2d_8">
          <path
             d="m 233.62359,276.89577 -3.07504,1.31809"
             style="fill:none;stroke:#000000;stroke-width:0.8;stroke-linecap:square"
             id="path155" />
        </g>
        <g
           id="text_8">
          <!-- 1.8 -->
          <g
             transform="matrix(0.1,0,0,-0.1,213.99973,299.8313)"
             id="g164">
            <use
               xlink:href="#DejaVuSans-31"
               id="use158"
               x="0"
               y="0"
               width="100%"
               height="100%" />
            <use
               x="63.623047"
               xlink:href="#DejaVuSans-2e"
               id="use160"
               y="0"
               width="100%"
               height="100%" />
            <use
               x="95.410156"
               xlink:href="#DejaVuSans-38"
               id="use162"
               y="0"
               width="100%"
               height="100%" />
          </g>
        </g>
      </g>
      <g
         id="xtick_7">
        <g
           id="line2d_9">
          <path
             d="m 196.97125,261.58861 -3.07505,1.25676"
             style="fill:none;stroke:#000000;stroke-width:0.8;stroke-linecap:square"
             id="path168" />
        </g>
        <g
           id="text_9">
          <!-- 2.4 -->
          <g
             transform="matrix(0.1,0,0,-0.1,177.44783,284.08846)"
             id="g180">
            <defs
               id="defs172">
              <path
                 d="M 2419,4116 825,1625 h 1594 z m -166,550 h 794 V 1625 h 666 V 1100 H 3047 V 0 H 2419 V 1100 H 313 v 609 z"
                 id="DejaVuSans-34"
                 transform="scale(0.015625)" />
            </defs>
            <use
               xlink:href="#DejaVuSans-32"
               id="use174"
               x="0"
               y="0"
               width="100%"
               height="100%" />
            <use
               x="63.623047"
               xlink:href="#DejaVuSans-2e"
               id="use176"
               y="0"
               width="100%"
               height="100%" />
            <use
               x="95.410156"
               xlink:href="#DejaVuSans-34"
               id="use178"
               y="0"
               width="100%"
               height="100%" />
          </g>
        </g>
      </g>
      <g
         id="xtick_8">
        <g
           id="line2d_10">
          <path
             d="m 162.00334,246.98492 -3.07182,1.19962"
             style="fill:none;stroke:#000000;stroke-width:0.8;stroke-linecap:square"
             id="path184" />
        </g>
        <g
           id="text_10">
          <!-- 3.0 -->
          <g
             transform="matrix(0.1,0,0,-0.1,142.58359,269.07249)"
             id="g196">
            <defs
               id="defs188">
              <path
                 d="m 2597,2516 q 453,-97 707,-404 255,-306 255,-756 0,-690 -475,-1069 -475,-378 -1350,-378 -293,0 -604,58 -311,58 -642,174 v 609 q 262,-153 574,-231 313,-78 654,-78 593,0 904,234 311,234 311,681 0,413 -289,645 -289,233 -804,233 h -544 v 519 h 569 q 465,0 712,186 247,186 247,536 0,359 -255,551 -254,193 -729,193 -260,0 -557,-57 -297,-56 -653,-174 v 562 q 360,100 674,150 314,50 592,50 719,0 1137,-327 419,-326 419,-882 0,-388 -222,-655 -222,-267 -631,-370 z"
                 id="DejaVuSans-33"
                 transform="scale(0.015625)" />
            </defs>
            <use
               xlink:href="#DejaVuSans-33"
               id="use190"
               x="0"
               y="0"
               width="100%"
               height="100%" />
            <use
               x="63.623047"
               xlink:href="#DejaVuSans-2e"
               id="use192"
               y="0"
               width="100%"
               height="100%" />
            <use
               x="95.410156"
               xlink:href="#DejaVuSans-30"
               id="use194"
               y="0"
               width="100%"
               height="100%" />
          </g>
        </g>
      </g>
      <g
         id="xtick_9">
        <g
           id="line2d_11">
          <path
             d="m 128.60633,233.03729 -3.06575,1.14628"
             style="fill:none;stroke:#000000;stroke-width:0.8;stroke-linecap:square"
             id="path200" />
        </g>
        <g
           id="text_11">
          <!-- 3.6 -->
          <g
             transform="matrix(0.1,0,0,-0.1,109.29276,254.73418)"
             id="g209">
            <use
               xlink:href="#DejaVuSans-33"
               id="use203"
               x="0"
               y="0"
               width="100%"
               height="100%" />
            <use
               x="63.623047"
               xlink:href="#DejaVuSans-2e"
               id="use205"
               y="0"
               width="100%"
               height="100%" />
            <use
               x="95.410156"
               xlink:href="#DejaVuSans-36"
               id="use207"
               y="0"
               width="100%"
               height="100%" />
          </g>
        </g>
      </g>
    </g>
    <g
       id="axis3d_3">
      <g
         id="line2d_12">
        <path
           d="M 120.47968,230.44725 116.64393,110.24401"
           style="fill:none;stroke:#000000;stroke-width:0.8;stroke-linecap:square"
           id="path214" />
      </g>
      <g
         id="text_12">
        <!-- stress (MPa) -->
        <g
           transform="matrix(0.00318943,0.09994912,0.09994912,-0.00318943,71.113148,141.07962)"
           id="g253">
          <defs
             id="defs227">
            <path
               d="m 2834,3397 v -544 q -243,125 -506,187 -262,63 -544,63 -428,0 -642,-131 -214,-131 -214,-394 0,-200 153,-314 153,-114 616,-217 l 197,-44 q 612,-131 870,-370 258,-239 258,-667 0,-488 -386,-773 Q 2250,-91 1575,-91 1294,-91 989,-36 684,19 347,128 v 594 q 319,-166 628,-249 309,-82 613,-82 406,0 624,139 219,139 219,392 0,234 -158,359 -157,125 -692,241 l -200,47 q -534,112 -772,345 -237,233 -237,639 0,494 350,762 350,269 994,269 318,0 599,-47 282,-46 519,-140 z"
               id="DejaVuSans-73"
               transform="scale(0.015625)" />
            <path
               d="M 1172,4494 V 3500 H 2356 V 3053 H 1172 V 1153 q 0,-428 117,-550 117,-122 477,-122 h 590 V 0 H 1766 Q 1100,0 847,248 594,497 594,1153 V 3053 H 172 v 447 h 422 v 994 z"
               id="DejaVuSans-74"
               transform="scale(0.015625)" />
            <path
               d="m 2631,2963 q -97,56 -211,82 -114,27 -251,27 -488,0 -749,-317 -261,-317 -261,-911 V 0 H 581 v 3500 h 578 v -544 q 182,319 472,473 291,155 707,155 59,0 131,-8 72,-7 159,-23 z"
               id="DejaVuSans-72"
               transform="scale(0.015625)" />
            <path
               d="M 3597,1894 V 1613 H 953 q 38,-594 358,-905 320,-311 892,-311 331,0 642,81 311,81 618,244 V 178 Q 3153,47 2828,-22 2503,-91 2169,-91 1331,-91 842,396 353,884 353,1716 q 0,859 464,1363 464,505 1252,505 706,0 1117,-455 411,-454 411,-1235 z m -575,169 q -6,471 -264,752 -258,282 -683,282 -481,0 -770,-272 -289,-272 -333,-766 z"
               id="DejaVuSans-65"
               transform="scale(0.015625)" />
            <path
               id="DejaVuSans-20"
               transform="scale(0.015625)"
               d="" />
            <path
               d="m 1984,4856 q -418,-718 -622,-1422 -203,-703 -203,-1425 0,-721 205,-1429 205,-708 620,-1424 h -500 q -468,735 -701,1444 -233,709 -233,1409 0,697 231,1403 232,707 703,1444 z"
               id="DejaVuSans-28"
               transform="scale(0.015625)" />
            <path
               d="m 628,4666 h 941 L 2759,1491 3956,4666 h 941 V 0 H 4281 V 4097 L 3078,897 H 2444 L 1241,4097 V 0 H 628 Z"
               id="DejaVuSans-4d"
               transform="scale(0.015625)" />
            <path
               d="M 1259,4147 V 2394 h 794 q 441,0 681,228 241,228 241,650 0,419 -241,647 -240,228 -681,228 z m -631,519 h 1425 q 785,0 1186,-355 402,-355 402,-1039 0,-691 -402,-1044 -401,-353 -1186,-353 H 1259 V 0 H 628 Z"
               id="DejaVuSans-50"
               transform="scale(0.015625)" />
            <path
               d="m 2194,1759 q -697,0 -966,-159 -269,-159 -269,-544 0,-306 202,-486 202,-179 548,-179 479,0 768,339 289,339 289,901 v 128 z m 1147,238 V 0 H 2766 V 531 Q 2569,213 2275,61 1981,-91 1556,-91 q -537,0 -855,302 -317,302 -317,808 0,590 395,890 396,300 1180,300 h 807 v 57 q 0,397 -261,614 -261,217 -733,217 -300,0 -585,-72 -284,-72 -546,-216 v 532 q 315,122 612,182 297,61 578,61 760,0 1135,-394 375,-393 375,-1193 z"
               id="DejaVuSans-61"
               transform="scale(0.015625)" />
            <path
               d="m 513,4856 h 500 q 468,-737 701,-1444 233,-706 233,-1403 0,-700 -233,-1409 -233,-709 -701,-1444 H 513 q 415,716 620,1424 205,708 205,1429 0,722 -205,1425 -205,704 -620,1422 z"
               id="DejaVuSans-29"
               transform="scale(0.015625)" />
          </defs>
          <use
             xlink:href="#DejaVuSans-73"
             id="use229"
             x="0"
             y="0"
             width="100%"
             height="100%" />
          <use
             x="52.099609"
             xlink:href="#DejaVuSans-74"
             id="use231"
             y="0"
             width="100%"
             height="100%" />
          <use
             x="91.308594"
             xlink:href="#DejaVuSans-72"
             id="use233"
             y="0"
             width="100%"
             height="100%" />
          <use
             x="130.17188"
             xlink:href="#DejaVuSans-65"
             id="use235"
             y="0"
             width="100%"
             height="100%" />
          <use
             x="191.69531"
             xlink:href="#DejaVuSans-73"
             id="use237"
             y="0"
             width="100%"
             height="100%" />
          <use
             x="243.79492"
             xlink:href="#DejaVuSans-73"
             id="use239"
             y="0"
             width="100%"
             height="100%" />
          <use
             x="295.89453"
             xlink:href="#DejaVuSans-20"
             id="use241"
             y="0"
             width="100%"
             height="100%" />
          <use
             x="327.68164"
             xlink:href="#DejaVuSans-28"
             id="use243"
             y="0"
             width="100%"
             height="100%" />
          <use
             x="366.69531"
             xlink:href="#DejaVuSans-4d"
             id="use245"
             y="0"
             width="100%"
             height="100%" />
          <use
             x="452.97461"
             xlink:href="#DejaVuSans-50"
             id="use247"
             y="0"
             width="100%"
             height="100%" />
          <use
             x="508.77734"
             xlink:href="#DejaVuSans-61"
             id="use249"
             y="0"
             width="100%"
             height="100%" />
          <use
             x="570.05664"
             xlink:href="#DejaVuSans-29"
             id="use251"
             y="0"
             width="100%"
             height="100%" />
        </g>
      </g>
      <g
         id="Line3DCollection_3">
        <path
           d="M 120.4053,228.11664 238.81523,184.42297 358.94968,227.3235"
           style="fill:none;stroke:#b0b0b0;stroke-width:0.8"
           id="path256" />
        <path
           d="m 119.89282,212.05665 118.91866,-42.69746 120.64934,41.92217"
           style="fill:none;stroke:#b0b0b0;stroke-width:0.8"
           id="path258" />
        <path
           d="m 119.37592,195.85814 119.43179,-41.68315 121.16864,40.92605"
           style="fill:none;stroke:#b0b0b0;stroke-width:0.8"
           id="path260" />
        <path
           d="M 118.85454,179.51933 238.8039,138.86892 360.49634,178.78075"
           style="fill:none;stroke:#b0b0b0;stroke-width:0.8"
           id="path262" />
        <path
           d="m 118.32862,163.03836 120.47144,-39.59885 122.22079,38.87915"
           style="fill:none;stroke:#b0b0b0;stroke-width:0.8"
           id="path264" />
        <path
           d="M 117.79811,146.41339 238.7962,107.88526 361.54994,145.71293"
           style="fill:none;stroke:#b0b0b0;stroke-width:0.8"
           id="path266" />
        <path
           d="M 117.26294,129.64251 238.7923,92.204648 362.08366,128.96165"
           style="fill:none;stroke:#b0b0b0;stroke-width:0.8"
           id="path268" />
        <path
           d="M 116.72306,112.72379 238.78837,76.396133 362.62209,112.06292"
           style="fill:none;stroke:#b0b0b0;stroke-width:0.8"
           id="path270" />
      </g>
      <g
         id="xtick_10">
        <g
           id="line2d_13">
          <path
             d="m 121.42607,227.73997 -3.06614,1.13142"
             style="fill:none;stroke:#000000;stroke-width:0.8;stroke-linecap:square"
             id="path273" />
        </g>
        <g
           id="text_13">
          <!-- 1 -->
          <g
             transform="matrix(0.1,0,0,-0.1,97.403133,235.78098)"
             id="g278">
            <use
               xlink:href="#DejaVuSans-31"
               id="use276"
               x="0"
               y="0"
               width="100%"
               height="100%" />
          </g>
        </g>
      </g>
      <g
         id="xtick_11">
        <g
           id="line2d_14">
          <path
             d="m 120.91829,211.68846 -3.08028,1.10596"
             style="fill:none;stroke:#000000;stroke-width:0.8;stroke-linecap:square"
             id="path282" />
        </g>
        <g
           id="text_14">
          <!-- 2 -->
          <g
             transform="matrix(0.1,0,0,-0.1,96.805475,219.71951)"
             id="g287">
            <use
               xlink:href="#DejaVuSans-32"
               id="use285"
               x="0"
               y="0"
               width="100%"
               height="100%" />
          </g>
        </g>
      </g>
      <g
         id="xtick_12">
        <g
           id="line2d_15">
          <path
             d="m 120.40613,195.49859 -3.09455,1.08003"
             style="fill:none;stroke:#000000;stroke-width:0.8;stroke-linecap:square"
             id="path291" />
        </g>
        <g
           id="text_15">
          <!-- 3 -->
          <g
             transform="matrix(0.1,0,0,-0.1,96.202662,203.51949)"
             id="g296">
            <use
               xlink:href="#DejaVuSans-33"
               id="use294"
               x="0"
               y="0"
               width="100%"
               height="100%" />
          </g>
        </g>
      </g>
      <g
         id="xtick_13">
        <g
           id="line2d_16">
          <path
             d="m 119.88954,179.16857 -3.10895,1.05361"
             style="fill:none;stroke:#000000;stroke-width:0.8;stroke-linecap:square"
             id="path300" />
        </g>
        <g
           id="text_16">
          <!-- 4 -->
          <g
             transform="matrix(0.1,0,0,-0.1,95.594626,187.17913)"
             id="g305">
            <use
               xlink:href="#DejaVuSans-34"
               id="use303"
               x="0"
               y="0"
               width="100%"
               height="100%" />
          </g>
        </g>
      </g>
      <g
         id="xtick_14">
        <g
           id="line2d_17">
          <path
             d="m 119.36846,162.69657 -3.12349,1.02669"
             style="fill:none;stroke:#000000;stroke-width:0.8;stroke-linecap:square"
             id="path309" />
        </g>
        <g
           id="text_17">
          <!-- 5 -->
          <g
             transform="matrix(0.1,0,0,-0.1,94.981301,170.6966)"
             id="g314">
            <use
               xlink:href="#DejaVuSans-35"
               id="use312"
               x="0"
               y="0"
               width="100%"
               height="100%" />
          </g>
        </g>
      </g>
      <g
         id="xtick_15">
        <g
           id="line2d_18">
          <path
             d="m 118.84283,146.08073 -3.13817,0.99925"
             style="fill:none;stroke:#000000;stroke-width:0.8;stroke-linecap:square"
             id="path318" />
        </g>
        <g
           id="text_18">
          <!-- 6 -->
          <g
             transform="matrix(0.1,0,0,-0.1,94.362615,154.07003)"
             id="g323">
            <use
               xlink:href="#DejaVuSans-36"
               id="use321"
               x="0"
               y="0"
               width="100%"
               height="100%" />
          </g>
        </g>
      </g>
      <g
         id="xtick_16">
        <g
           id="line2d_19">
          <path
             d="m 118.31259,129.31916 -3.15298,0.97129"
             style="fill:none;stroke:#000000;stroke-width:0.8;stroke-linecap:square"
             id="path327" />
        </g>
        <g
           id="text_19">
          <!-- 7 -->
          <g
             transform="matrix(0.1,0,0,-0.1,93.738499,137.29752)"
             id="g335">
            <defs
               id="defs331">
              <path
                 d="M 525,4666 H 3525 V 4397 L 1831,0 H 1172 L 2766,4134 H 525 Z"
                 id="DejaVuSans-37"
                 transform="scale(0.015625)" />
            </defs>
            <use
               xlink:href="#DejaVuSans-37"
               id="use333"
               x="0"
               y="0"
               width="100%"
               height="100%" />
          </g>
        </g>
      </g>
      <g
         id="xtick_17">
        <g
           id="line2d_20">
          <path
             d="m 117.77767,112.40993 -3.16793,0.9428"
             style="fill:none;stroke:#000000;stroke-width:0.8;stroke-linecap:square"
             id="path339" />
        </g>
        <g
           id="text_20">
          <!-- 8 -->
          <g
             transform="matrix(0.1,0,0,-0.1,93.108881,120.37715)"
             id="g344">
            <use
               xlink:href="#DejaVuSans-38"
               id="use342"
               x="0"
               y="0"
               width="100%"
               height="100%" />
          </g>
        </g>
      </g>
    </g>
    <g
       id="axes_1">
      <g
         id="Poly3DCollection_1">
        <path
           clip-path="url(#p8d494c81fa)"
           d="m 248.0004,133.62366 -34.14496,-9.03014 25.05808,1.75267 34.00902,13.27514 z"
           style="fill:#0000d4;fill-opacity:0.5"
           id="path349" />
        <path
           clip-path="url(#p8d494c81fa)"
           d="m 248.00692,130.5897 -34.23132,-17.84404 25.13305,-8.58081 34.15361,19.32756 z"
           style="fill:#582929;fill-opacity:0.6"
           id="path351" />
        <path
           clip-path="url(#p8d494c81fa)"
           d="m 222.04568,132.75388 -34.23363,-10.40432 26.04339,2.24396 34.14496,9.03014 z"
           style="fill:#0000d2;fill-opacity:0.5"
           id="path353" />
        <path
           clip-path="url(#p8d494c81fa)"
           d="M 222.08232,140.68984 187.83741,124.2274 213.7756,112.74566 248.00692,130.5897 Z"
           style="fill:#4d1f1f;fill-opacity:0.6"
           id="path355" />
        <path
           clip-path="url(#p8d494c81fa)"
           d="m 283.65352,150.05003 -35.65312,-16.42637 24.92214,5.99767 35.42744,16.5988 z"
           style="fill:#0000cb;fill-opacity:0.5"
           id="path357" />
        <path
           clip-path="url(#p8d494c81fa)"
           d="m 283.60249,154.4892 -35.59557,-23.8995 25.05534,-7.09729 35.39947,26.51703 z"
           style="fill:#620606;fill-opacity:0.6"
           id="path359" />
        <path
           clip-path="url(#p8d494c81fa)"
           d="m 273.06226,123.49241 -34.15361,-19.32756 -105.05439,61.06079 33.93624,11.10374 z"
           style="fill:none"
           id="path361" />
        <path
           clip-path="url(#p8d494c81fa)"
           d="m 195.3172,155.35208 -34.18131,-15.28851 26.70152,-15.83617 34.24491,16.46244 z"
           style="fill:#4d1010;fill-opacity:0.6"
           id="path363" />
        <path
           clip-path="url(#p8d494c81fa)"
           d="m 195.23716,148.48425 -34.17662,-12.0896 26.75151,-14.04509 34.23363,10.40432 z"
           style="fill:#000064;fill-opacity:0.5"
           id="path365" />
        <path
           clip-path="url(#p8d494c81fa)"
           d="m 320.34121,191.76219 -36.73872,-37.27299 24.85924,-4.47976 36.28116,43.03877 z"
           style="fill:#6b0202;fill-opacity:0.6"
           id="path367" />
        <path
           clip-path="url(#p8d494c81fa)"
           d="m 257.79374,162.0142 -35.71142,-21.32436 25.9246,-10.10014 35.59557,23.8995 z"
           style="fill:#510808;fill-opacity:0.6"
           id="path369" />
        <path
           clip-path="url(#p8d494c81fa)"
           d="m 320.51902,183.42923 -36.8655,-33.3792 24.69646,6.1701 36.62952,28.31977 z"
           style="fill:#0000ad;fill-opacity:0.5"
           id="path371" />
        <path
           clip-path="url(#p8d494c81fa)"
           d="m 257.82656,155.0883 -35.78088,-22.33442 25.95472,0.86978 35.65312,16.42637 z"
           style="fill:#0000af;fill-opacity:0.5"
           id="path373" />
        <path
           clip-path="url(#p8d494c81fa)"
           d="M 308.46173,150.00944 273.06226,123.49241 167.7905,176.32938 203.41703,192.5837 Z"
           style="fill:none"
           id="path375" />
        <path
           clip-path="url(#p8d494c81fa)"
           d="m 167.81219,177.47212 -34.02004,-14.47721 27.34374,-22.93134 34.18131,15.28851 z"
           style="fill:#560000;fill-opacity:0.6"
           id="path377" />
        <path
           clip-path="url(#p8d494c81fa)"
           d="m 167.7905,176.32938 -33.93624,-11.10374 27.20628,-28.83099 34.17662,12.0896 z"
           style="fill:#000067;fill-opacity:0.5"
           id="path379" />
        <path
           clip-path="url(#p8d494c81fa)"
           d="m 231.04617,174.2663 -35.72897,-18.91422 26.76512,-14.66224 35.71142,21.32436 z"
           style="fill:#490303;fill-opacity:0.6"
           id="path381" />
        <path
           clip-path="url(#p8d494c81fa)"
           d="m 294.86323,194.0425 -37.06949,-32.0283 25.80875,-7.525 36.73872,37.27299 z"
           style="fill:#620101;fill-opacity:0.6"
           id="path383" />
        <path
           clip-path="url(#p8d494c81fa)"
           d="m 231.0322,168.1801 -35.79504,-19.69585 26.80852,-15.73037 35.78088,22.33442 z"
           style="fill:#000052;fill-opacity:0.5"
           id="path385" />
        <path
           clip-path="url(#p8d494c81fa)"
           d="m 294.94617,188.36142 -37.11961,-33.27312 25.82696,-5.03827 36.8655,33.3792 z"
           style="fill:#00007c;fill-opacity:0.5"
           id="path387" />
        <path
           clip-path="url(#p8d494c81fa)"
           d="m 344.74289,193.04821 -36.28116,-43.03877 -105.0447,42.57426 37.30283,21.44532 z"
           style="fill:none"
           id="path389" />
        <path
           clip-path="url(#p8d494c81fa)"
           d="m 203.43427,194.37476 -35.62208,-16.90264 27.50501,-22.12004 35.72897,18.91422 z"
           style="fill:#530000;fill-opacity:0.6"
           id="path391" />
        <path
           clip-path="url(#p8d494c81fa)"
           d="M 203.41703,192.5837 167.7905,176.32938 195.23716,148.48425 231.0322,168.1801 Z"
           style="fill:#000060;fill-opacity:0.5"
           id="path393" />
        <path
           clip-path="url(#p8d494c81fa)"
           d="m 268.30928,201.22252 -37.26311,-26.95622 26.74757,-12.2521 37.06949,32.0283 z"
           style="fill:#4d0000;fill-opacity:0.6"
           id="path395" />
        <path
           clip-path="url(#p8d494c81fa)"
           d="m 268.34329,196.73568 -37.31109,-28.55558 26.79436,-13.0918 37.11961,33.27312 z"
           style="fill:#000053;fill-opacity:0.5"
           id="path397" />
        <path
           clip-path="url(#p8d494c81fa)"
           d="m 240.7192,216.57735 -37.28493,-22.20259 27.6119,-20.10846 37.26311,26.95622 z"
           style="fill:#4a0101;fill-opacity:0.6"
           id="path399" />
        <path
           clip-path="url(#p8d494c81fa)"
           d="m 240.71986,214.02902 -37.30283,-21.44532 27.61517,-24.4036 37.31109,28.55558 z"
           style="fill:#000058;fill-opacity:0.5"
           id="path401" />
      </g>
      <g
         id="legend_1"
         transform="translate(0,28.5)">
        <g
           id="patch_6">
          <path
             d="M 309.51756,122.94388 H 362.216 q 2,0 2,-2 V 48.472 q 0,-2 -2,-2 h -52.69844 q -2,0 -2,2 v 72.47188 q 0,2 2,2 z"
             style="opacity:0.8;fill:#ffffff;stroke:#cccccc;stroke-linejoin:miter"
             id="path404" />
        </g>
        <g
           id="patch_7">
          <path
             d="m 311.51756,58.070438 h 20 v -7 h -20 z"
             style="fill:#008000"
             id="path407" />
        </g>
        <g
           id="text_21">
          <!-- $g_{ta}$ -->
          <g
             transform="matrix(0.1,0,0,-0.1,339.51756,58.070438)"
             id="g421">
            <defs
               id="defs413">
              <path
                 d="M 3816,3500 3219,434 q -172,-890 -658,-1327 -486,-438 -1308,-438 -303,0 -563,45 -259,45 -484,139 l 107,559 q 212,-137 449,-202 238,-66 507,-66 547,0 898,299 352,298 464,857 l 50,263 Q 2441,288 2122,144 1803,0 1434,0 903,0 598,351 294,703 294,1319 q 0,484 184,948 185,464 519,824 222,237 517,365 295,128 617,128 353,0 615,-164 263,-164 392,-464 l 100,544 z M 2950,2216 q 0,425 -200,656 -200,231 -569,231 -228,0 -434,-91 -206,-90 -353,-253 -238,-268 -371,-632 -132,-364 -132,-752 0,-431 201,-663 202,-231 580,-231 547,0 912,495 366,496 366,1240 z"
                 id="DejaVuSans-Oblique-67"
                 transform="scale(0.015625)" />
              <path
                 d="m 2706,3500 -87,-447 H 1472 L 1100,1153 q -19,-106 -28,-178 -9,-72 -9,-112 0,-200 120,-291 120,-91 386,-91 h 581 L 2053,0 H 1503 Q 991,0 739,200 488,400 488,806 q 0,72 9,158 9,86 28,189 L 897,3053 H 409 l 91,447 h 478 l 194,994 h 575 l -191,-994 z"
                 id="DejaVuSans-Oblique-74"
                 transform="scale(0.015625)" />
              <path
                 d="M 3438,1997 3047,0 h -575 l 106,531 Q 2325,219 2001,64 1678,-91 1281,-91 834,-91 548,182 263,456 263,884 q 0,613 489,969 489,356 1348,356 h 800 l 31,154 q 7,25 10,54 3,30 3,92 0,279 -227,433 -226,155 -636,155 -281,0 -577,-72 -295,-72 -607,-216 l 100,532 q 325,122 636,182 311,61 601,61 619,0 942,-269 324,-268 324,-781 0,-103 -16,-242 -15,-139 -46,-295 z m -622,-238 h -575 q -707,0 -1046,-189 -339,-189 -339,-586 0,-275 173,-431 174,-156 480,-156 469,0 819,336 350,336 463,898 z"
                 id="DejaVuSans-Oblique-61"
                 transform="scale(0.015625)" />
            </defs>
            <use
               xlink:href="#DejaVuSans-Oblique-67"
               id="use415"
               x="0"
               y="0"
               width="100%"
               height="100%" />
            <use
               transform="matrix(0.7,0,0,0.7,63.476562,-16.40625)"
               xlink:href="#DejaVuSans-Oblique-74"
               id="use417"
               x="0"
               y="0"
               width="100%"
               height="100%" />
            <use
               transform="matrix(0.7,0,0,0.7,90.922852,-16.40625)"
               xlink:href="#DejaVuSans-Oblique-61"
               id="use419"
               x="0"
               y="0"
               width="100%"
               height="100%" />
          </g>
        </g>
        <g
           id="patch_8">
          <path
             d="m 311.51756,72.768875 h 20 v -7 h -20 z"
             style="fill:#ff0000"
             id="path424" />
        </g>
        <g
           id="text_22">
          <!-- $g_{tb}$ -->
          <g
             transform="matrix(0.1,0,0,-0.1,339.51756,72.768875)"
             id="g433">
            <use
               xlink:href="#DejaVuSans-Oblique-67"
               id="use427"
               x="0"
               y="0"
               width="100%"
               height="100%" />
            <use
               transform="matrix(0.7,0,0,0.7,63.476562,-16.40625)"
               xlink:href="#DejaVuSans-Oblique-74"
               id="use429"
               x="0"
               y="0"
               width="100%"
               height="100%" />
            <use
               transform="matrix(0.7,0,0,0.7,90.922852,-16.40625)"
               xlink:href="#DejaVuSans-Oblique-62"
               id="use431"
               x="0"
               y="0"
               width="100%"
               height="100%" />
          </g>
        </g>
        <g
           id="patch_9">
          <path
             d="m 311.51756,87.467313 h 20 v -7 h -20 z"
             style="fill:#ffa500"
             id="path436" />
        </g>
        <g
           id="text_23">
          <!-- $g_{za}$ -->
          <g
             transform="matrix(0.1,0,0,-0.1,339.51756,87.467313)"
             id="g448">
            <defs
               id="defs440">
              <path
                 d="M 744,3500 H 3475 L 3372,2975 738,459 H 2913 L 2822,0 H -19 L 84,525 2719,3041 H 653 Z"
                 id="DejaVuSans-Oblique-7a"
                 transform="scale(0.015625)" />
            </defs>
            <use
               xlink:href="#DejaVuSans-Oblique-67"
               id="use442"
               x="0"
               y="0"
               width="100%"
               height="100%" />
            <use
               transform="matrix(0.7,0,0,0.7,63.476562,-16.40625)"
               xlink:href="#DejaVuSans-Oblique-7a"
               id="use444"
               x="0"
               y="0"
               width="100%"
               height="100%" />
            <use
               transform="matrix(0.7,0,0,0.7,100.21973,-16.40625)"
               xlink:href="#DejaVuSans-Oblique-61"
               id="use446"
               x="0"
               y="0"
               width="100%"
               height="100%" />
          </g>
        </g>
        <g
           id="patch_10">
          <path
             d="m 311.51756,102.16575 h 20 v -7 h -20 z"
             style="fill:#ff00ff"
             id="path451" />
        </g>
        <g
           id="text_24">
          <!-- $g_{zb}$ -->
          <g
             transform="matrix(0.1,0,0,-0.1,339.51756,102.16575)"
             id="g460">
            <use
               xlink:href="#DejaVuSans-Oblique-67"
               id="use454"
               x="0"
               y="0"
               width="100%"
               height="100%" />
            <use
               transform="matrix(0.7,0,0,0.7,63.476562,-16.40625)"
               xlink:href="#DejaVuSans-Oblique-7a"
               id="use456"
               x="0"
               y="0"
               width="100%"
               height="100%" />
            <use
               transform="matrix(0.7,0,0,0.7,100.21973,-16.40625)"
               xlink:href="#DejaVuSans-Oblique-62"
               id="use458"
               x="0"
               y="0"
               width="100%"
               height="100%" />
          </g>
        </g>
        <g
           id="patch_11">
          <path
             d="m 311.51756,116.86419 h 20 v -7 h -20 z"
             style="fill:#0000ff;fill-opacity:0.5"
             id="path463" />
        </g>
        <g
           id="text_25">
          <!-- FEM -->
          <g
             transform="matrix(0.1,0,0,-0.1,339.51756,116.86419)"
             id="g476">
            <defs
               id="defs468">
              <path
                 d="M 628,4666 H 3309 V 4134 H 1259 V 2759 H 3109 V 2228 H 1259 V 0 H 628 Z"
                 id="DejaVuSans-46"
                 transform="scale(0.015625)" />
              <path
                 d="M 628,4666 H 3578 V 4134 H 1259 V 2753 H 3481 V 2222 H 1259 V 531 H 3634 V 0 H 628 Z"
                 id="DejaVuSans-45"
                 transform="scale(0.015625)" />
            </defs>
            <use
               xlink:href="#DejaVuSans-46"
               id="use470"
               x="0"
               y="0"
               width="100%"
               height="100%" />
            <use
               x="57.519531"
               xlink:href="#DejaVuSans-45"
               id="use472"
               y="0"
               width="100%"
               height="100%" />
            <use
               x="120.70312"
               xlink:href="#DejaVuSans-4d"
               id="use474"
               y="0"
               width="100%"
               height="100%" />
          </g>
        </g>
      </g>
    </g>
  </g>
  <defs
     id="defs485">
    <clipPath
       id="p8d494c81fa">
      <rect
         height="266.112"
         width="266.112"
         x="103.104"
         y="41.472"
         id="rect482" />
    </clipPath>
  </defs>
</svg>
