<?xml version="1.0" encoding="UTF-8" standalone="no"?>
<svg
   xmlns:dc="http://purl.org/dc/elements/1.1/"
   xmlns:cc="http://creativecommons.org/ns#"
   xmlns:rdf="http://www.w3.org/1999/02/22-rdf-syntax-ns#"
   xmlns:svg="http://www.w3.org/2000/svg"
   xmlns="http://www.w3.org/2000/svg"
   xmlns:sodipodi="http://sodipodi.sourceforge.net/DTD/sodipodi-0.dtd"
   xmlns:inkscape="http://www.inkscape.org/namespaces/inkscape"
   width="210mm"
   height="297mm"
   viewBox="0 0 210 297"
   version="1.1"
   id="svg23142"
   inkscape:version="1.0.2-2 (e86c870879, 2021-01-15)"
   sodipodi:docname="diagonal_case.svg">
  <defs
     id="defs23136">
    <marker
       style="overflow:visible;"
       id="marker2436"
       refX="0.0"
       refY="0.0"
       orient="auto"
       inkscape:stockid="Arrow1Mend"
       inkscape:isstock="true">
      <path
         transform="scale(0.4) rotate(180) translate(10,0)"
         style="fill-rule:evenodd;stroke:#000000;stroke-width:1pt;stroke-opacity:1;fill:#000000;fill-opacity:1"
         d="M 0.0,0.0 L 5.0,-5.0 L -12.5,0.0 L 5.0,5.0 L 0.0,0.0 z "
         id="path2434" />
    </marker>
    <marker
       style="overflow:visible;"
       id="marker2426"
       refX="0.0"
       refY="0.0"
       orient="auto"
       inkscape:stockid="Arrow1Mend"
       inkscape:isstock="true">
      <path
         transform="scale(0.4) rotate(180) translate(10,0)"
         style="fill-rule:evenodd;stroke:#000000;stroke-width:1pt;stroke-opacity:1;fill:#000000;fill-opacity:1"
         d="M 0.0,0.0 L 5.0,-5.0 L -12.5,0.0 L 5.0,5.0 L 0.0,0.0 z "
         id="path2424" />
    </marker>
    <marker
       style="overflow:visible"
       id="marker2416"
       refX="0.0"
       refY="0.0"
       orient="auto"
       inkscape:stockid="Arrow1Mstart"
       inkscape:isstock="true">
      <path
         transform="scale(0.4) translate(10,0)"
         style="fill-rule:evenodd;stroke:#000000;stroke-width:1pt;stroke-opacity:1;fill:#000000;fill-opacity:1"
         d="M 0.0,0.0 L 5.0,-5.0 L -12.5,0.0 L 5.0,5.0 L 0.0,0.0 z "
         id="path2414" />
    </marker>
    <marker
       style="overflow:visible"
       id="marker2406"
       refX="0.0"
       refY="0.0"
       orient="auto"
       inkscape:stockid="Arrow1Mstart"
       inkscape:isstock="true">
      <path
         transform="scale(0.4) translate(10,0)"
         style="fill-rule:evenodd;stroke:#000000;stroke-width:1pt;stroke-opacity:1;fill:#000000;fill-opacity:1"
         d="M 0.0,0.0 L 5.0,-5.0 L -12.5,0.0 L 5.0,5.0 L 0.0,0.0 z "
         id="path2404" />
    </marker>
    <marker
       style="overflow:visible;"
       id="marker1774"
       refX="0.0"
       refY="0.0"
       orient="auto"
       inkscape:stockid="Arrow1Mend"
       inkscape:isstock="true"
       inkscape:collect="always">
      <path
         transform="scale(0.4) rotate(180) translate(10,0)"
         style="fill-rule:evenodd;stroke:#000000;stroke-width:1pt;stroke-opacity:1;fill:#000000;fill-opacity:1"
         d="M 0.0,0.0 L 5.0,-5.0 L -12.5,0.0 L 5.0,5.0 L 0.0,0.0 z "
         id="path1772" />
    </marker>
    <marker
       style="overflow:visible;"
       id="marker1764"
       refX="0.0"
       refY="0.0"
       orient="auto"
       inkscape:stockid="Arrow1Mend"
       inkscape:isstock="true"
       inkscape:collect="always">
      <path
         transform="scale(0.4) rotate(180) translate(10,0)"
         style="fill-rule:evenodd;stroke:#000000;stroke-width:1pt;stroke-opacity:1;fill:#000000;fill-opacity:1"
         d="M 0.0,0.0 L 5.0,-5.0 L -12.5,0.0 L 5.0,5.0 L 0.0,0.0 z "
         id="path1762" />
    </marker>
    <marker
       style="overflow:visible"
       id="marker1754"
       refX="0.0"
       refY="0.0"
       orient="auto"
       inkscape:stockid="Arrow1Mstart"
       inkscape:isstock="true"
       inkscape:collect="always">
      <path
         transform="scale(0.4) translate(10,0)"
         style="fill-rule:evenodd;stroke:#000000;stroke-width:1pt;stroke-opacity:1;fill:#000000;fill-opacity:1"
         d="M 0.0,0.0 L 5.0,-5.0 L -12.5,0.0 L 5.0,5.0 L 0.0,0.0 z "
         id="path1752" />
    </marker>
    <marker
       style="overflow:visible"
       id="marker1744"
       refX="0.0"
       refY="0.0"
       orient="auto"
       inkscape:stockid="Arrow1Mstart"
       inkscape:isstock="true"
       inkscape:collect="always">
      <path
         transform="scale(0.4) translate(10,0)"
         style="fill-rule:evenodd;stroke:#000000;stroke-width:1pt;stroke-opacity:1;fill:#000000;fill-opacity:1"
         d="M 0.0,0.0 L 5.0,-5.0 L -12.5,0.0 L 5.0,5.0 L 0.0,0.0 z "
         id="path1742" />
    </marker>
    <marker
       style="overflow:visible;"
       id="marker25594"
       refX="0.0"
       refY="0.0"
       orient="auto"
       inkscape:stockid="Arrow1Mend"
       inkscape:isstock="true">
      <path
         transform="scale(0.4) rotate(180) translate(10,0)"
         style="fill-rule:evenodd;stroke:#000000;stroke-width:1pt;stroke-opacity:1;fill:#000000;fill-opacity:1"
         d="M 0.0,0.0 L 5.0,-5.0 L -12.5,0.0 L 5.0,5.0 L 0.0,0.0 z "
         id="path25592" />
    </marker>
    <marker
       style="overflow:visible;"
       id="marker25524"
       refX="0.0"
       refY="0.0"
       orient="auto"
       inkscape:stockid="Arrow1Mend"
       inkscape:isstock="true">
      <path
         transform="scale(0.4) rotate(180) translate(10,0)"
         style="fill-rule:evenodd;stroke:#000000;stroke-width:1pt;stroke-opacity:1;fill:#000000;fill-opacity:1"
         d="M 0.0,0.0 L 5.0,-5.0 L -12.5,0.0 L 5.0,5.0 L 0.0,0.0 z "
         id="path25522" />
    </marker>
    <marker
       style="overflow:visible;"
       id="marker25440"
       refX="0.0"
       refY="0.0"
       orient="auto"
       inkscape:stockid="Arrow1Mend"
       inkscape:isstock="true"
       inkscape:collect="always">
      <path
         transform="scale(0.4) rotate(180) translate(10,0)"
         style="fill-rule:evenodd;stroke:#000000;stroke-width:1pt;stroke-opacity:1;fill:#000000;fill-opacity:1"
         d="M 0.0,0.0 L 5.0,-5.0 L -12.5,0.0 L 5.0,5.0 L 0.0,0.0 z "
         id="path25438" />
    </marker>
    <marker
       style="overflow:visible;"
       id="marker25258"
       refX="0.0"
       refY="0.0"
       orient="auto"
       inkscape:stockid="Arrow1Mend"
       inkscape:isstock="true">
      <path
         transform="scale(0.4) rotate(180) translate(10,0)"
         style="fill-rule:evenodd;stroke:#000000;stroke-width:1pt;stroke-opacity:1;fill:#000000;fill-opacity:1"
         d="M 0.0,0.0 L 5.0,-5.0 L -12.5,0.0 L 5.0,5.0 L 0.0,0.0 z "
         id="path25256" />
    </marker>
    <marker
       style="overflow:visible;"
       id="marker25248"
       refX="0.0"
       refY="0.0"
       orient="auto"
       inkscape:stockid="Arrow1Mend"
       inkscape:isstock="true">
      <path
         transform="scale(0.4) rotate(180) translate(10,0)"
         style="fill-rule:evenodd;stroke:#000000;stroke-width:1pt;stroke-opacity:1;fill:#000000;fill-opacity:1"
         d="M 0.0,0.0 L 5.0,-5.0 L -12.5,0.0 L 5.0,5.0 L 0.0,0.0 z "
         id="path25246" />
    </marker>
    <marker
       style="overflow:visible"
       id="marker25238"
       refX="0.0"
       refY="0.0"
       orient="auto"
       inkscape:stockid="Arrow1Mstart"
       inkscape:isstock="true">
      <path
         transform="scale(0.4) translate(10,0)"
         style="fill-rule:evenodd;stroke:#000000;stroke-width:1pt;stroke-opacity:1;fill:#000000;fill-opacity:1"
         d="M 0.0,0.0 L 5.0,-5.0 L -12.5,0.0 L 5.0,5.0 L 0.0,0.0 z "
         id="path25236" />
    </marker>
    <marker
       style="overflow:visible"
       id="marker25228"
       refX="0.0"
       refY="0.0"
       orient="auto"
       inkscape:stockid="Arrow1Mstart"
       inkscape:isstock="true">
      <path
         transform="scale(0.4) translate(10,0)"
         style="fill-rule:evenodd;stroke:#000000;stroke-width:1pt;stroke-opacity:1;fill:#000000;fill-opacity:1"
         d="M 0.0,0.0 L 5.0,-5.0 L -12.5,0.0 L 5.0,5.0 L 0.0,0.0 z "
         id="path25226" />
    </marker>
    <marker
       style="overflow:visible;"
       id="marker25046"
       refX="0.0"
       refY="0.0"
       orient="auto"
       inkscape:stockid="Arrow1Mend"
       inkscape:isstock="true"
       inkscape:collect="always">
      <path
         transform="scale(0.4) rotate(180) translate(10,0)"
         style="fill-rule:evenodd;stroke:#000000;stroke-width:1pt;stroke-opacity:1;fill:#000000;fill-opacity:1"
         d="M 0.0,0.0 L 5.0,-5.0 L -12.5,0.0 L 5.0,5.0 L 0.0,0.0 z "
         id="path25044" />
    </marker>
    <marker
       style="overflow:visible"
       id="marker25036"
       refX="0.0"
       refY="0.0"
       orient="auto"
       inkscape:stockid="Arrow1Mstart"
       inkscape:isstock="true"
       inkscape:collect="always">
      <path
         transform="scale(0.4) translate(10,0)"
         style="fill-rule:evenodd;stroke:#000000;stroke-width:1pt;stroke-opacity:1;fill:#000000;fill-opacity:1"
         d="M 0.0,0.0 L 5.0,-5.0 L -12.5,0.0 L 5.0,5.0 L 0.0,0.0 z "
         id="path25034" />
    </marker>
    <marker
       style="overflow:visible;"
       id="Arrow1Mend"
       refX="0.0"
       refY="0.0"
       orient="auto"
       inkscape:stockid="Arrow1Mend"
       inkscape:isstock="true"
       inkscape:collect="always">
      <path
         transform="scale(0.4) rotate(180) translate(10,0)"
         style="fill-rule:evenodd;stroke:#000000;stroke-width:1pt;stroke-opacity:1;fill:#000000;fill-opacity:1"
         d="M 0.0,0.0 L 5.0,-5.0 L -12.5,0.0 L 5.0,5.0 L 0.0,0.0 z "
         id="path24619" />
    </marker>
    <marker
       style="overflow:visible"
       id="Arrow1Mstart"
       refX="0.0"
       refY="0.0"
       orient="auto"
       inkscape:stockid="Arrow1Mstart"
       inkscape:isstock="true"
       inkscape:collect="always">
      <path
         transform="scale(0.4) translate(10,0)"
         style="fill-rule:evenodd;stroke:#000000;stroke-width:1pt;stroke-opacity:1;fill:#000000;fill-opacity:1"
         d="M 0.0,0.0 L 5.0,-5.0 L -12.5,0.0 L 5.0,5.0 L 0.0,0.0 z "
         id="path24616" />
    </marker>
  </defs>
  <sodipodi:namedview
     id="base"
     pagecolor="#ffffff"
     bordercolor="#666666"
     borderopacity="1.0"
     inkscape:pageopacity="0.0"
     inkscape:pageshadow="2"
     inkscape:zoom="2.8"
     inkscape:cx="261.57502"
     inkscape:cy="463.41786"
     inkscape:document-units="mm"
     inkscape:current-layer="layer2"
     inkscape:document-rotation="0"
     showgrid="true"
     inkscape:window-width="1920"
     inkscape:window-height="1001"
     inkscape:window-x="-9"
     inkscape:window-y="1491"
     inkscape:window-maximized="1">
    <inkscape:grid
       type="xygrid"
       id="grid23705" />
  </sodipodi:namedview>
  <metadata
     id="metadata23139">
    <rdf:RDF>
      <cc:Work
         rdf:about="">
        <dc:format>image/svg+xml</dc:format>
        <dc:type
           rdf:resource="http://purl.org/dc/dcmitype/StillImage" />
        <dc:title />
      </cc:Work>
    </rdf:RDF>
  </metadata>
  <g
     inkscape:label="Layer 1"
     inkscape:groupmode="layer"
     id="layer1">
    <path
       style="fill:#008000;fill-opacity:1;stroke:#000000;stroke-width:0.264583px;stroke-linecap:butt;stroke-linejoin:miter;stroke-opacity:1"
       d="m 59.266666,97.366676 16.933337,-16.93334 4.23333,4.23333 -33.866667,33.866674 12.700001,12.7 16.933336,-16.93334 4.23333,4.23333 -33.866667,33.86667 12.7,12.7 10e-7,12.7 H 38.099996 L 38.1,59.266666 h 21.166667 v 12.7 l -12.7,12.7 z"
       id="path23711"
       sodipodi:nodetypes="cccccccccccccccc" />
    <path
       style="fill:#008000;fill-opacity:1;stroke:#000000;stroke-width:0.374177px;stroke-linecap:butt;stroke-linejoin:miter;stroke-opacity:1"
       d="m 258.23333,97.366677 33.86668,-16.93334 8.46666,4.23333 -67.73334,33.866673 25.4,12.7 33.86668,-16.93334 8.46666,4.23333 -67.73334,33.86667 25.4,12.7 v 12.7 H 215.9 V 59.266667 h 42.33333 v 12.7 l -25.4,12.7 z"
       id="path23715"
       sodipodi:nodetypes="cccccccccccccccc" />
    <path
       style="fill:#ff0000;stroke:#000000;stroke-width:0.264583px;stroke-linecap:butt;stroke-linejoin:miter;stroke-opacity:1"
       d="m 250.87357,75.646545 -18.04024,9.020122 18.04076,9.020122 a 11.641666,11.641666 0 0 1 -4.28243,-9.020122 11.641666,11.641666 0 0 1 4.28191,-9.020122 z"
       id="path23729" />
    <path
       style="fill:#ff0000;stroke:#000000;stroke-width:0.264583px;stroke-linecap:butt;stroke-linejoin:miter;stroke-opacity:1"
       d="m 250.87357,109.51323 -18.04024,9.02013 18.04076,9.02012 a 11.641666,11.641666 0 0 1 -4.28243,-9.02012 11.641666,11.641666 0 0 1 4.28191,-9.02013 z"
       id="path23731" />
    <path
       style="fill:#ff0000;stroke:#000000;stroke-width:0.264583px;stroke-linecap:butt;stroke-linejoin:miter;stroke-opacity:1"
       d="m 250.87357,143.3799 -18.04024,9.02013 18.04076,9.02012 a 11.641666,11.641666 0 0 1 -4.28243,-9.02012 11.641666,11.641666 0 0 1 4.28191,-9.02013 z"
       id="path23733" />
    <path
       style="fill:#008000;fill-opacity:1;stroke:#000000;stroke-width:0.264583px;stroke-linecap:butt;stroke-linejoin:miter;stroke-opacity:1"
       d="m 122.76667,96.308333 12.7,-16.933333 4.23333,5.291663 -25.4,33.866677 8.46667,11.64166 12.7,-16.93333 4.23333,5.29166 -25.4,33.86667 8.46668,12.7 v 12.7 H 101.6 V 59.266666 h 21.16668 v 12.7 l -8.46668,12.7 z"
       id="path1714"
       sodipodi:nodetypes="cccccccccccccccc" />
    <path
       style="fill:#008000;fill-opacity:1;stroke:#000000;stroke-width:0.264583px;stroke-linecap:butt;stroke-linejoin:miter;stroke-opacity:1"
       d="M 165.1,96.308334 182.03334,84.66667 186.26667,79.375004 190.5,84.666667 186.26667,89.958336 169.33333,101.6 165.1,106.89167 156.63333,118.53334 165.1,130.175 c 6.35,-8.46667 10.58333,-3.175 16.93333,-11.64167 l 4.23333,-5.29166 4.23333,5.29166 -4.23333,5.29167 c -6.34999,8.46667 -10.58333,3.175 -16.93333,11.64167 L 165.1,140.75833 156.63333,152.4 l 8.46668,12.7 v 12.7 H 143.93333 V 59.266667 h 21.16668 v 12.7 l -8.46668,12.7 z"
       id="path2376"
       sodipodi:nodetypes="cccccccccccccccccccccccc" />
    <path
       style="fill:#008000;fill-opacity:1;stroke:#000000;stroke-width:0.264583px;stroke-linecap:butt;stroke-linejoin:miter;stroke-opacity:1"
       d="M 59.266667,234.95 76.2,228.6 l 4.23333,4.23333 -33.866664,16.93334 12.700001,21.16667 16.933333,-8.46668 4.23333,4.23333 -33.866664,16.93334 12.7,21.16667 10e-7,12.7 H 38.099996 L 38.1,198.96667 h 21.166667 v 12.7 l -12.7,4.23333 z"
       id="path3152"
       sodipodi:nodetypes="cccccccccccccccc" />
  </g>
  <g
     inkscape:groupmode="layer"
     id="layer2"
     inkscape:label="Layer 2">
    <path
       style="fill:#00ff00;fill-opacity:0.479853;stroke:#000000;stroke-width:0.264583px;stroke-linecap:butt;stroke-linejoin:miter;stroke-opacity:1"
       d="m 59.266666,139.69999 16.933337,16.93334 4.23333,-4.23333 -33.866667,-33.86667 12.700001,-12.7 16.933336,16.93334 4.23333,-4.23333 -33.866667,-33.866677 12.7,-12.7 10e-7,-12.699997 -46.566671,0 L 12.7,177.8 l 46.566667,0 v -12.7 l -12.7,-12.7 z"
       id="path23709"
       sodipodi:nodetypes="cccccccccccccccc" />
    <path
       style="fill:#00ff00;fill-opacity:0.479853;stroke:#000000;stroke-width:0.374177px;stroke-linecap:butt;stroke-linejoin:miter;stroke-opacity:1"
       d="m 258.23333,139.69999 33.86668,16.93334 8.46666,-4.23333 -67.73334,-33.86667 25.4,-12.7 33.86668,16.93334 8.46666,-4.23333 -67.73334,-33.866676 25.4,-12.7 V 59.266667 H 215.9 V 177.8 h 42.33333 v -12.7 l -25.4,-12.7 z"
       id="path23717"
       sodipodi:nodetypes="cccccccccccccccc" />
    <path
       style="fill:#ff0000;stroke:#000000;stroke-width:0.062087px;stroke-linecap:butt;stroke-linejoin:miter;stroke-opacity:1"
       d="m 296.33333,116.41666 4.23334,2.11667 -4.23346,2.11666 a 2.7318423,2.7318423 0 0 0 1.00492,-2.11666 2.7318423,2.7318423 0 0 0 -1.0048,-2.11667 z"
       id="path23735" />
    <path
       style="fill:#ff0000;stroke:#000000;stroke-width:0.062087px;stroke-linecap:butt;stroke-linejoin:miter;stroke-opacity:1"
       d="m 296.33333,82.54998 4.23334,2.11667 -4.23346,2.116664 a 2.7318423,2.7318423 0 0 0 1.00492,-2.116664 2.7318423,2.7318423 0 0 0 -1.0048,-2.11667 z"
       id="path23738" />
    <path
       style="fill:#ff0000;stroke:#000000;stroke-width:0.062087px;stroke-linecap:butt;stroke-linejoin:miter;stroke-opacity:1"
       d="m 296.33333,150.28334 4.23334,2.11667 -4.23346,2.11666 a 2.7318423,2.7318423 0 0 0 1.00492,-2.11666 2.7318423,2.7318423 0 0 0 -1.0048,-2.11667 z"
       id="path23740" />
    <path
       style="fill:none;stroke:#000000;stroke-width:0.26499999;stroke-linecap:butt;stroke-linejoin:miter;stroke-opacity:1;stroke-miterlimit:4;stroke-dasharray:0.52999997,0.26499999;stroke-dashoffset:0"
       d="m 59.266666,105.83333 v 12.7"
       id="path24600" />
    <text
       xml:space="preserve"
       style="font-style:italic;font-size:3.52778px;line-height:1.25;font-family:'Times New Roman';-inkscape-font-specification:'Times New Roman, Italic';stroke-width:0.264583"
       x="60.618961"
       y="112.04671"
       id="text24604"><tspan
         sodipodi:role="line"
         id="tspan24602"
         x="60.618961"
         y="112.04671"
         style="font-size:3.52778px;stroke-width:0.264583">α</tspan></text>
    <circle
       style="fill:none;fill-opacity:1;stroke-width:0.26499901;stroke-linejoin:bevel;stroke-miterlimit:4;stroke-dasharray:none;stroke-dashoffset:0;stroke:#000000"
       id="path24606"
       sodipodi:type="arc"
       sodipodi:cx="59.266666"
       sodipodi:cy="105.83333"
       sodipodi:rx="4.2333331"
       sodipodi:ry="4.2333331"
       sodipodi:start="0.78539816"
       sodipodi:end="1.5707963"
       sodipodi:arc-type="arc"
       d="m 62.260085,108.82675 a 4.2333331,4.2333331 0 0 1 -2.993419,1.23991"
       sodipodi:open="true" />
    <path
       style="fill:none;stroke:#000000;stroke-width:0.264583px;stroke-linecap:butt;stroke-linejoin:miter;stroke-opacity:1;marker-start:url(#Arrow1Mstart);marker-end:url(#Arrow1Mend)"
       d="m 68.791668,114.3 3.174999,-3.175"
       id="path24608" />
    <text
       xml:space="preserve"
       style="font-style:italic;font-size:3.52778px;line-height:1.25;font-family:'Times New Roman';-inkscape-font-specification:'Times New Roman, Italic';stroke-width:0.264583"
       x="70.388618"
       y="115.19769"
       id="text24926"><tspan
         sodipodi:role="line"
         id="tspan24924"
         x="70.388618"
         y="115.19769"
         style="font-size:3.52778px;stroke-width:0.264583">w<tspan
   style="font-style:normal;font-variant:normal;font-weight:normal;font-stretch:normal;font-size:65%;font-family:'Times New Roman';-inkscape-font-specification:'Times New Roman, ';baseline-shift:super"
   id="tspan24928">a</tspan></tspan></text>
    <path
       style="fill:none;stroke:#000000;stroke-width:0.264583px;stroke-linecap:butt;stroke-linejoin:miter;stroke-opacity:1;marker-start:url(#marker25036);marker-end:url(#marker25046)"
       d="M 56.091666,126.99999 67.733333,115.35833"
       id="path24942"
       sodipodi:nodetypes="cc" />
    <text
       xml:space="preserve"
       style="font-style:italic;font-size:3.52778px;line-height:1.25;font-family:'Times New Roman';-inkscape-font-specification:'Times New Roman, Italic';stroke-width:0.264583"
       x="62.224327"
       y="123.26748"
       id="text24948"><tspan
         sodipodi:role="line"
         id="tspan24946"
         x="62.224327"
         y="123.26748"
         style="font-size:3.52778px;stroke-width:0.264583">w<tspan
   style="font-style:normal;font-variant:normal;font-weight:normal;font-stretch:normal;font-size:65%;font-family:'Times New Roman';-inkscape-font-specification:'Times New Roman, ';baseline-shift:super"
   id="tspan24944">b</tspan></tspan></text>
    <path
       style="fill:none;stroke:#000000;stroke-width:0.265;stroke-linecap:butt;stroke-linejoin:miter;stroke-miterlimit:4;stroke-dasharray:0.53, 0.265;stroke-dashoffset:0;stroke-opacity:1"
       d="m 258.23333,105.83333 v 12.7"
       id="path25130" />
    <text
       xml:space="preserve"
       style="font-style:italic;font-size:3.52778px;line-height:1.25;font-family:'Times New Roman';-inkscape-font-specification:'Times New Roman, Italic';stroke-width:0.264583"
       x="260.71954"
       y="111.4325"
       id="text25134"><tspan
         sodipodi:role="line"
         id="tspan25132"
         x="260.71954"
         y="111.4325"
         style="font-size:3.52778px;stroke-width:0.264583">α</tspan></text>
    <circle
       style="fill:none;fill-opacity:1;stroke:#000000;stroke-width:0.264999;stroke-linejoin:bevel;stroke-miterlimit:4;stroke-dasharray:none;stroke-dashoffset:0"
       id="circle25136"
       sodipodi:type="arc"
       sodipodi:cx="258.23334"
       sodipodi:cy="105.83333"
       sodipodi:rx="4.2333331"
       sodipodi:ry="4.2333331"
       sodipodi:start="0.45446859"
       sodipodi:end="1.5707963"
       sodipodi:arc-type="arc"
       d="m 262.03696,107.6917 a 4.2333331,4.2333331 0 0 1 -3.80362,2.37496"
       sodipodi:open="true" />
    <path
       style="fill:none;stroke:#000000;stroke-width:0.264583px;stroke-linecap:butt;stroke-linejoin:miter;stroke-opacity:1;marker-start:url(#marker25238);marker-end:url(#marker25258)"
       d="m 267.75833,110.06667 2.969,-5.93801"
       id="path25210"
       sodipodi:nodetypes="cc" />
    <text
       xml:space="preserve"
       style="font-style:italic;font-size:3.52778px;line-height:1.25;font-family:'Times New Roman';-inkscape-font-specification:'Times New Roman, Italic';stroke-width:0.264583"
       x="270.20572"
       y="109.65089"
       id="text25216"><tspan
         sodipodi:role="line"
         id="tspan25214"
         x="270.20572"
         y="109.65089"
         style="font-size:3.52778px;stroke-width:0.264583">w<tspan
   style="font-style:normal;font-variant:normal;font-weight:normal;font-stretch:normal;font-size:65%;font-family:'Times New Roman';-inkscape-font-specification:'Times New Roman, ';baseline-shift:super"
   id="tspan25212">a</tspan></tspan></text>
    <path
       style="fill:none;stroke:#000000;stroke-width:0.264583px;stroke-linecap:butt;stroke-linejoin:miter;stroke-opacity:1;marker-start:url(#marker25228);marker-end:url(#marker25248)"
       d="m 257.175,130.175 9.525,-19.05"
       id="path25218"
       sodipodi:nodetypes="cc" />
    <text
       xml:space="preserve"
       style="font-style:italic;font-size:3.52778px;line-height:1.25;font-family:'Times New Roman';-inkscape-font-specification:'Times New Roman, Italic';stroke-width:0.264583"
       x="262.84464"
       y="122.11464"
       id="text25224"><tspan
         sodipodi:role="line"
         id="tspan25222"
         x="262.84464"
         y="122.11464"
         style="font-size:3.52778px;stroke-width:0.264583">w<tspan
   style="font-style:normal;font-variant:normal;font-weight:normal;font-stretch:normal;font-size:65%;font-family:'Times New Roman';-inkscape-font-specification:'Times New Roman, ';baseline-shift:super"
   id="tspan25220">b</tspan></tspan></text>
    <path
       style="fill:none;stroke:#000000;stroke-width:0.5;stroke-linecap:butt;stroke-linejoin:miter;stroke-miterlimit:4;stroke-dasharray:none;stroke-opacity:1;marker-end:url(#marker25440)"
       d="m 292.1,118.53333 h 21.16666"
       id="path25430"
       sodipodi:nodetypes="cc" />
    <text
       xml:space="preserve"
       style="font-style:italic;font-size:4.23333px;line-height:1.25;font-family:'Times New Roman';-inkscape-font-specification:'Times New Roman, Italic';stroke-width:0.264583"
       x="315.47778"
       y="119.96018"
       id="text25510"><tspan
         sodipodi:role="line"
         id="tspan25508"
         x="315.47778"
         y="119.96018"
         style="font-size:4.23333px;stroke-width:0.264583">F</tspan></text>
    <path
       style="fill:none;stroke:#000000;stroke-width:0.5;stroke-linecap:butt;stroke-linejoin:miter;stroke-miterlimit:4;stroke-dasharray:none;stroke-opacity:1;marker-end:url(#marker25524)"
       d="m 292.1,118.53333 4.23333,-8.46666"
       id="path25512" />
    <path
       style="fill:none;stroke:#000000;stroke-width:0.5;stroke-linecap:butt;stroke-linejoin:miter;stroke-miterlimit:4;stroke-dasharray:none;stroke-opacity:1;marker-end:url(#marker25594)"
       d="M 292.1,118.53333 309.03333,127"
       id="path25514" />
    <text
       xml:space="preserve"
       style="font-style:italic;font-size:4.23333px;line-height:1.25;font-family:'Times New Roman';-inkscape-font-specification:'Times New Roman, Italic';stroke-width:0.264583"
       x="296.57901"
       y="108.33742"
       id="text25688"><tspan
         sodipodi:role="line"
         id="tspan25686"
         x="296.57901"
         y="108.33742"
         style="font-size:4.23333px;stroke-width:0.264583">F<tspan
   style="font-style:normal;font-variant:normal;font-weight:normal;font-stretch:normal;font-size:65%;font-family:'Times New Roman';-inkscape-font-specification:'Times New Roman, ';baseline-shift:sub"
   id="tspan25690">s</tspan></tspan></text>
    <text
       xml:space="preserve"
       style="font-style:italic;font-size:4.23333px;line-height:1.25;font-family:'Times New Roman';-inkscape-font-specification:'Times New Roman, Italic';stroke-width:0.264583"
       x="309.61917"
       y="129.92931"
       id="text25696"><tspan
         sodipodi:role="line"
         id="tspan25694"
         x="309.61917"
         y="129.92931"
         style="font-size:4.23333px;stroke-width:0.264583">F<tspan
   style="font-style:normal;font-variant:normal;font-weight:normal;font-stretch:normal;font-size:65%;font-family:'Times New Roman';-inkscape-font-specification:'Times New Roman, ';baseline-shift:sub"
   id="tspan25692">t</tspan></tspan></text>
    <path
       style="fill:none;stroke:#000000;stroke-width:0.264583;stroke-linecap:butt;stroke-linejoin:miter;stroke-miterlimit:4;stroke-dasharray:0.529166, 0.529166;stroke-dashoffset:0;stroke-opacity:1"
       d="m 309.03333,127 4.23333,-8.46667 -16.93333,-8.46666"
       id="path25698" />
    <path
       id="path993"
       style="fill:#008000;fill-opacity:1;stroke:#000000;stroke-width:0.264583px;stroke-linecap:butt;stroke-linejoin:miter;stroke-opacity:1"
       d="M 8.4666443,46.566667 4.2333181,50.8 -16.933345,63.500001 l -4.233334,4.233333 -12.699996,12.7 -4.233334,4.233333 -8.466669,12.699999 -12.7,-12.7 -8.466666,-8.466667 V 110.06667 143.93333 177.8 211.66666 l 8.466666,8.46667 12.7,-12.7 4.233332,-4.23333 8.466671,-12.7 4.23333,-4.23333 12.7,-12.7 4.233333,-4.23334 21.1666563,-12.7 L 12.699981,152.4 8.4666443,148.16666 4.2333181,152.4 l -21.1666631,12.7 -4.233334,4.23333 -12.699996,12.7 -4.233334,4.23334 -8.466669,12.69999 -12.7,-12.7 12.7,-12.7 4.233332,-4.23333 8.466671,-12.7 4.23333,-4.23333 12.7,-12.7 4.233333,-4.23333 21.1666563,-12.7 4.2333367,-4.23334 -4.2333367,-4.23333 -4.2333262,4.23333 -21.1666631,12.7 -4.233334,4.23334 -12.699996,12.7 -4.233334,4.23333 -8.466669,12.7 -12.7,-12.7 12.7,-12.7 4.233332,-4.23333 8.466671,-12.7 4.23333,-4.23334 12.7,-12.7 L -12.700012,101.6 8.4666443,88.899999 12.699981,84.666666 8.4666443,80.433333 4.2333181,84.666666 -16.933345,97.366668 -21.166679,101.6 l -12.699996,12.7 -4.233334,4.23333 -8.466669,12.7 -12.7,-12.7 12.7,-12.7 4.233332,-4.23333 8.466671,-12.699999 4.23333,-4.233334 12.7,-12.699999 4.233333,-4.233334 L 8.4666443,55.033333 12.699981,50.8 Z"
       sodipodi:nodetypes="ccccccccccccccccccccccccccccccccccccccccccccccccccccccccccccccccccccccc" />
    <path
       id="path1009"
       style="fill:#00ff00;fill-opacity:0.490842;stroke:#000000;stroke-width:0.264583px;stroke-linecap:butt;stroke-linejoin:miter;stroke-opacity:1"
       d="m 8.4666643,224.36666 -4.2333262,-4.23334 -21.1666691,-12.7 -4.233331,-4.23333 -12.699999,-12.7 -4.23334,-4.23333 -8.46667,-12.7 -12.7,12.7 -8.46666,8.46667 V 160.86667 127 93.133333 59.266667 l 8.46666,-8.466666 12.7,12.699999 4.233339,4.233333 8.466671,12.700002 4.23333,4.233333 12.7,12.7 4.23333,4.233332 21.1666653,12.7 4.2333367,4.23333 -4.2333367,4.23334 -4.2333262,-4.23334 -21.1666691,-12.7 -4.233331,-4.23333 -12.699999,-12.699999 -4.23334,-4.233333 -8.46667,-12.700001 -12.7,12.7 12.7,12.7 4.233339,4.233333 8.466671,12.7 4.23333,4.23333 12.7,12.7 4.23333,4.23334 21.1666653,12.7 L 12.700001,152.4 8.4666643,156.63333 4.2333381,152.4 -16.933331,139.7 l -4.233331,-4.23333 -12.699999,-12.7 -4.23334,-4.23334 -8.46667,-12.7 -12.7,12.7 12.7,12.7 4.233339,4.23334 8.466671,12.7 4.23333,4.23333 12.7,12.7 4.23333,4.23333 21.1666653,12.7 4.2333367,4.23333 -4.2333367,4.23333 -4.2333262,-4.23333 -21.1666691,-12.7 -4.233331,-4.23333 -12.699999,-12.7 -4.23334,-4.23333 -8.46667,-12.7 -12.7,12.7 12.7,12.7 4.233339,4.23333 8.466671,12.7 4.23333,4.23333 12.7,12.7 4.23333,4.23333 21.1666653,12.7 4.2333367,4.23333 z"
       sodipodi:nodetypes="ccccccccccccccccccccccccccccccccccccccccccccccccccccccccccccccccccccccc" />
    <path
       style="fill:#00ff00;fill-opacity:0.479853;stroke:#000000;stroke-width:0.264583px;stroke-linecap:butt;stroke-linejoin:miter;stroke-opacity:1"
       d="m 122.76667,140.75833 12.7,16.93334 L 139.7,152.4 l -25.4,-33.86667 8.46667,-11.64166 12.7,16.93333 4.23333,-5.29166 -25.4,-33.866677 8.46668,-12.7 V 59.266666 H 101.6 V 177.8 h 21.16668 V 165.1 L 114.3,152.4 Z"
       id="path1716"
       sodipodi:nodetypes="cccccccccccccccc" />
    <path
       style="fill:none;stroke:#000000;stroke-width:0.265;stroke-linecap:butt;stroke-linejoin:miter;stroke-miterlimit:4;stroke-dasharray:0.53, 0.265;stroke-dashoffset:0;stroke-opacity:1"
       d="m 122.76667,106.89167 v 12.7"
       id="path1718" />
    <text
       xml:space="preserve"
       style="font-style:italic;font-size:3.52778px;line-height:1.25;font-family:'Times New Roman';-inkscape-font-specification:'Times New Roman, Italic';stroke-width:0.264583"
       x="124.11894"
       y="113.10504"
       id="text1722"><tspan
         sodipodi:role="line"
         id="tspan1720"
         x="124.11894"
         y="113.10504"
         style="font-size:3.52778px;stroke-width:0.264583">α</tspan></text>
    <circle
       style="fill:none;fill-opacity:1;stroke:#000000;stroke-width:0.264999;stroke-linejoin:bevel;stroke-miterlimit:4;stroke-dasharray:none;stroke-dashoffset:0"
       id="circle1724"
       sodipodi:type="arc"
       sodipodi:cx="122.76663"
       sodipodi:cy="106.89166"
       sodipodi:rx="4.2333331"
       sodipodi:ry="4.2333331"
       sodipodi:start="0.92081902"
       sodipodi:end="1.5707963"
       sodipodi:arc-type="arc"
       d="m 125.32851,110.26181 a 4.2333331,4.2333331 0 0 1 -2.56188,0.86319"
       sodipodi:open="true" />
    <path
       style="fill:none;stroke:#000000;stroke-width:0.264583px;stroke-linecap:butt;stroke-linejoin:miter;stroke-opacity:1;marker-start:url(#marker1754);marker-end:url(#marker1774)"
       d="m 128.66309,113.37395 3.175,-4.23333"
       id="path1726"
       sodipodi:nodetypes="cc" />
    <text
       xml:space="preserve"
       style="font-style:italic;font-size:3.52778px;line-height:1.25;font-family:'Times New Roman';-inkscape-font-specification:'Times New Roman, Italic';stroke-width:0.264583"
       x="130.29784"
       y="114.3"
       id="text1732"><tspan
         sodipodi:role="line"
         id="tspan1730"
         x="130.29784"
         y="114.3"
         style="font-size:3.52778px;stroke-width:0.264583">w<tspan
   style="font-style:normal;font-variant:normal;font-weight:normal;font-stretch:normal;font-size:65%;font-family:'Times New Roman';-inkscape-font-specification:'Times New Roman, ';baseline-shift:super"
   id="tspan1728">a</tspan></tspan></text>
    <path
       style="fill:none;stroke:#000000;stroke-width:0.264583px;stroke-linecap:butt;stroke-linejoin:miter;stroke-opacity:1;marker-start:url(#marker1744);marker-end:url(#marker1764)"
       d="m 120.13028,124.57151 7.40833,-9.525"
       id="path1734"
       sodipodi:nodetypes="cc" />
    <text
       xml:space="preserve"
       style="font-style:italic;font-size:3.52778px;line-height:1.25;font-family:'Times New Roman';-inkscape-font-specification:'Times New Roman, Italic';stroke-width:0.264583"
       x="124.16516"
       y="122.41703"
       id="text1740"><tspan
         sodipodi:role="line"
         id="tspan1738"
         x="124.16516"
         y="122.41703"
         style="font-size:3.52778px;stroke-width:0.264583">w<tspan
   style="font-style:normal;font-variant:normal;font-weight:normal;font-stretch:normal;font-size:65%;font-family:'Times New Roman';-inkscape-font-specification:'Times New Roman, ';baseline-shift:super"
   id="tspan1736">b</tspan></tspan></text>
    <path
       style="fill:#00ff00;fill-opacity:0.479853;stroke:#000000;stroke-width:0.264583px;stroke-linecap:butt;stroke-linejoin:miter;stroke-opacity:1"
       d="m 182.03333,118.53333 4.23333,5.29167 4.23333,-5.29166 -4.23333,-5.29167 M 169.33333,101.6 165.1,96.308333 l -8.46667,-11.641669 8.46668,-12.7 V 59.266667 H 143.93333 V 177.8 h 21.16668 V 165.1 L 156.63333,152.4 165.1,140.75833 182.03334,152.4 186.26667,157.69167 190.5,152.4 186.26667,147.10833 169.33333,135.46667 165.1,130.175 156.63333,118.53333 165.1,106.89167"
       id="path2378"
       sodipodi:nodetypes="ccccccccccccccccccccccc" />
    <text
       xml:space="preserve"
       style="font-style:italic;font-size:2.11667px;line-height:1.25;font-family:'Times New Roman';-inkscape-font-specification:'Times New Roman, Italic';stroke-width:0.264583"
       x="186.16345"
       y="-67.067268"
       id="text2384"
       transform="rotate(53.56217)"><tspan
         sodipodi:role="line"
         x="186.16345"
         y="-67.067268"
         style="font-style:normal;font-variant:normal;font-weight:normal;font-stretch:normal;font-size:2.11667px;font-family:'Times New Roman';-inkscape-font-specification:'Times New Roman, ';stroke-width:0.264583"
         id="tspan1097">bending angle</tspan></text>
    <circle
       style="fill:none;fill-opacity:1;stroke:#000000;stroke-width:0.264999;stroke-linejoin:bevel;stroke-miterlimit:4;stroke-dasharray:none;stroke-dashoffset:0"
       id="circle2386"
       sodipodi:type="arc"
       sodipodi:cx="165.07896"
       sodipodi:cy="106.88161"
       sodipodi:rx="4.2333331"
       sodipodi:ry="4.2333331"
       sodipodi:start="0.57101195"
       sodipodi:end="0.93725182"
       sodipodi:arc-type="arc"
       d="m 168.6407,109.16965 a 4.2333331,4.2333331 0 0 1 -1.05558,1.12375"
       sodipodi:open="true" />
    <path
       style="fill:none;stroke:#000000;stroke-width:0.265;stroke-linecap:butt;stroke-linejoin:miter;stroke-miterlimit:4;stroke-dasharray:0.265, 0.265;stroke-dashoffset:0;stroke-opacity:1"
       d="m 164.89739,106.70003 8.46667,11.64167"
       id="path2718" />
    <circle
       style="fill:#ff6600;fill-opacity:0.490842;stroke-width:0.264999;stroke-linejoin:bevel;stroke-dasharray:0.264999, 0.26499899999999998;stroke:#000000"
       id="path1079"
       sodipodi:type="arc"
       sodipodi:cx="182.03333"
       sodipodi:cy="118.53333"
       sodipodi:rx="6.7657762"
       sodipodi:ry="6.7657762"
       sodipodi:start="5.1269678"
       sodipodi:end="5.3741025"
       sodipodi:arc-type="slice"
       d="m 184.75861,112.34071 a 6.7657762,6.7657762 0 0 1 1.43208,0.85483 l -4.15736,5.33779 z" />
    <circle
       style="fill:#ff6600;fill-opacity:0.490842;stroke:#000000;stroke-width:0.264999;stroke-linejoin:bevel;stroke-dasharray:0.264999, 0.26499899999999998"
       id="circle1081"
       sodipodi:type="arc"
       sodipodi:cx="-169.33333"
       sodipodi:cy="-101.6"
       sodipodi:rx="6.7657762"
       sodipodi:ry="6.7657762"
       sodipodi:start="5.1269678"
       sodipodi:end="5.3741025"
       sodipodi:arc-type="slice"
       d="m -166.60804,-107.79262 a 6.7657762,6.7657762 0 0 1 1.43208,0.85483 l -4.15737,5.33779 z"
       transform="scale(-1)" />
    <path
       id="path1083"
       style="fill:#0000ff;stroke:#000000;stroke-width:0.999999px;stroke-linecap:butt;stroke-linejoin:miter;stroke-opacity:1"
       d="m 688,448 10.30078,-23.4043 -7.68359,-5.20508 -8.48633,24.16407 z M 637.38281,412.60938 645.86914,388.44531 640,384 629.69922,407.4043 Z"
       transform="scale(0.26458333)"
       sodipodi:nodetypes="cccccccccc" />
    <path
       style="fill:#00ff00;stroke:#000000;stroke-width:0.264583px;stroke-linecap:butt;stroke-linejoin:miter;stroke-opacity:1;fill-opacity:0.4981685"
       d="m 170.88643,102.77595 -2.24573,6.39371 11.83951,8.18772 2.24573,-6.3937 z"
       id="path1087"
       sodipodi:nodetypes="ccccc" />
    <text
       xml:space="preserve"
       style="font-size:2.11667px;line-height:1.25;font-family:sans-serif;stroke-width:0.264583"
       x="173.82542"
       y="112.88796"
       id="text1091"><tspan
         sodipodi:role="line"
         id="tspan1089"
         x="173.82542"
         y="112.88796"
         style="stroke-width:0.264583" /><tspan
         sodipodi:role="line"
         x="173.82542"
         y="115.5338"
         style="stroke-width:0.264583"
         id="tspan1095" /><tspan
         sodipodi:role="line"
         x="173.82542"
         y="118.17963"
         style="stroke-width:0.264583"
         id="tspan1093" /></text>
    <path
       id="path1103"
       style="fill:none;stroke:#000000;stroke-width:0.264583px;stroke-linecap:butt;stroke-linejoin:miter;stroke-opacity:1;marker-end:url(#marker2426)"
       d="m 166.64255,105.67169 c 0.31409,-13.957879 7.58712,0.37794 19.71113,-3.40769 m -1.30294,11.22532 c 3.6007,-4.57575 -12.26138,-7.77302 1.30294,-11.22532"
       sodipodi:nodetypes="cccc" />
    <text
       xml:space="preserve"
       style="font-size:2.11667px;line-height:1.25;font-family:sans-serif;stroke-width:0.264583"
       x="187.32253"
       y="102.29741"
       id="text1108"><tspan
         sodipodi:role="line"
         id="tspan1106"
         x="187.32253"
         y="102.29741"
         style="stroke-width:0.264583">bending</tspan></text>
    <path
       id="path1117"
       style="fill:none;stroke:#000000;stroke-width:0.265;stroke-linecap:butt;stroke-linejoin:miter;stroke-opacity:1;stroke-miterlimit:4;stroke-dasharray:none;marker-end:url(#marker2436)"
       d="m 168.7807,105.57146 c 3.0736,3.27405 14.13187,1.06907 20.41271,1.20271 m -6.1806,6.74856 c -5.67948,-4.6104 1.10248,-6.78196 6.1806,-6.74856" />
    <text
       xml:space="preserve"
       style="font-size:2.11667px;line-height:1.25;font-family:sans-serif;stroke-width:0.264583"
       x="190.59659"
       y="107.20849"
       id="text1146"><tspan
         sodipodi:role="line"
         id="tspan1144"
         x="190.59659"
         y="107.20849"
         style="stroke-width:0.264583">stretching</tspan></text>
    <path
       style="fill:#00ff00;fill-opacity:0.479853;stroke:#000000;stroke-width:0.264583px;stroke-linecap:butt;stroke-linejoin:miter;stroke-opacity:1"
       d="M 59.266667,277.28333 76.2,304.79999 l 4.23333,-4.23333 -33.866664,-50.8 12.700001,-6.34999 L 76.2,270.93333 80.43333,266.7 46.566666,215.89999 l 12.7,-4.23333 10e-7,-12.69999 H 38.099996 L 38.1,317.5 h 21.166667 v -12.7 l -12.7,-21.16667 z"
       id="path3154"
       sodipodi:nodetypes="cccccccccccccccc" />
  </g>
</svg>
