<?xml version="1.0" encoding="UTF-8" standalone="no"?>
<svg
   xmlns:dc="http://purl.org/dc/elements/1.1/"
   xmlns:cc="http://creativecommons.org/ns#"
   xmlns:rdf="http://www.w3.org/1999/02/22-rdf-syntax-ns#"
   xmlns:svg="http://www.w3.org/2000/svg"
   xmlns="http://www.w3.org/2000/svg"
   xmlns:sodipodi="http://sodipodi.sourceforge.net/DTD/sodipodi-0.dtd"
   xmlns:inkscape="http://www.inkscape.org/namespaces/inkscape"
   width="210mm"
   height="297mm"
   viewBox="0 0 210 297"
   version="1.1"
   id="svg8"
   inkscape:version="1.0.2-2 (e86c870879, 2021-01-15)"
   sodipodi:docname="straight_model.svg">
  <defs
     id="defs2" />
  <sodipodi:namedview
     id="base"
     pagecolor="#ffffff"
     bordercolor="#666666"
     borderopacity="1.0"
     inkscape:pageopacity="0.0"
     inkscape:pageshadow="2"
     inkscape:zoom="1.979899"
     inkscape:cx="244.97327"
     inkscape:cy="382.11376"
     inkscape:document-units="mm"
     inkscape:current-layer="layer1"
     inkscape:document-rotation="0"
     showgrid="true"
     inkscape:window-width="2400"
     inkscape:window-height="1421"
     inkscape:window-x="-9"
     inkscape:window-y="-9"
     inkscape:window-maximized="1">
    <inkscape:grid
       type="xygrid"
       id="grid833" />
  </sodipodi:namedview>
  <metadata
     id="metadata5">
    <rdf:RDF>
      <cc:Work
         rdf:about="">
        <dc:format>image/svg+xml</dc:format>
        <dc:type
           rdf:resource="http://purl.org/dc/dcmitype/StillImage" />
        <dc:title></dc:title>
      </cc:Work>
    </rdf:RDF>
  </metadata>
  <g
     inkscape:groupmode="layer"
     id="layer3"
     inkscape:label="PP below"
     style="display:inline">
    <path
       style="fill:none;stroke:#000000;stroke-width:0.265;stroke-linecap:butt;stroke-linejoin:miter;stroke-miterlimit:4;stroke-dasharray:0.53, 0.53;stroke-dashoffset:0;stroke-opacity:1"
       d="M 105.83333,63.5 63.499999,42.333333"
       id="path874"
       sodipodi:nodetypes="cc" />
    <path
       style="fill:none;stroke:#000000;stroke-width:0.265;stroke-linecap:butt;stroke-linejoin:miter;stroke-miterlimit:4;stroke-dasharray:0.53, 0.53;stroke-dashoffset:0;stroke-opacity:1"
       d="M 198.96667,76.2 156.63333,55.033334"
       id="path918"
       sodipodi:nodetypes="cc" />
    <path
       style="fill:none;stroke:#000000;stroke-width:0.265;stroke-linecap:butt;stroke-linejoin:miter;stroke-miterlimit:4;stroke-dasharray:0.53, 0.53;stroke-dashoffset:0;stroke-opacity:1"
       d="M 194.73333,135.46667 177.8,127"
       id="path950"
       sodipodi:nodetypes="cc" />
    <path
       style="fill:none;stroke:#000000;stroke-width:0.265;stroke-linecap:butt;stroke-linejoin:miter;stroke-miterlimit:4;stroke-dasharray:0.53, 0.53;stroke-dashoffset:0;stroke-opacity:1"
       d="M 88.899997,139.7 63.5,131.23333"
       id="path1052"
       sodipodi:nodetypes="cc" />
  </g>
  <g
     inkscape:label="PLA"
     inkscape:groupmode="layer"
     id="layer1">
    <path
       style="fill:#00ff00;stroke:#000000;stroke-width:0.264583px;stroke-linecap:butt;stroke-linejoin:miter;stroke-opacity:1"
       d="M 38.1,50.799999 63.5,25.4 V 42.333333 L 38.1,67.733332 Z"
       id="path837"
       sodipodi:nodetypes="ccccc" />
    <path
       id="path849"
       style="fill:#00ff00;stroke:#000000;stroke-width:0.999999px;stroke-linecap:butt;stroke-linejoin:miter;stroke-opacity:1"
       d="m 176,176 -32,32 64,32 v -16 l 21.33398,-21.33398 z"
       transform="scale(0.26458333)" />
    <path
       style="fill:#00ff00;stroke:#000000;stroke-width:0.264583px;stroke-linecap:butt;stroke-linejoin:miter;stroke-opacity:1"
       d="M 38.1,55.033333 63.499999,67.733332 V 80.433333 L 38.1,67.733333 Z"
       id="path839"
       sodipodi:nodetypes="ccccc" />
    <path
       style="fill:#00ff00;stroke:#000000;stroke-width:0.264583px;stroke-linecap:butt;stroke-linejoin:miter;stroke-opacity:1"
       d="m 63.499999,67.733332 8.466667,-8.466666 v 12.7 l -8.466667,8.466667 z"
       id="path841"
       sodipodi:nodetypes="ccccc" />
    <path
       style="fill:#00ff00;stroke:#000000;stroke-width:0.264583px;stroke-linecap:butt;stroke-linejoin:miter;stroke-opacity:1"
       d="m 55.033333,63.499999 v -4.233333 l 8.466666,4.233333 v 4.233333 z"
       id="path843" />
    <path
       style="fill:#00ff00;stroke:#000000;stroke-width:0.264583px;stroke-linecap:butt;stroke-linejoin:miter;stroke-opacity:1"
       d="M 63.499999,63.499999 88.899999,38.1 v 4.233333 l -25.4,25.399999 z"
       id="path845"
       sodipodi:nodetypes="ccccc" />
    <path
       style="fill:#00ff00;stroke:#000000;stroke-width:0.264583px;stroke-linecap:butt;stroke-linejoin:miter;stroke-opacity:1"
       d="m 55.033333,59.266666 8.466666,4.233333 25.4,-25.399999 -8.466666,-4.233333 z"
       id="path847"
       sodipodi:nodetypes="ccccc" />
    <path
       style="fill:#00ff00;stroke:#000000;stroke-width:0.264583px;stroke-linecap:butt;stroke-linejoin:miter;stroke-opacity:1"
       d="m 38.1,50.799999 -16.933334,-8.466666 25.4,-25.4 L 63.499999,25.4 Z"
       id="path863" />
    <path
       style="fill:#00ff00;stroke:#000000;stroke-width:0.264583px;stroke-linecap:butt;stroke-linejoin:miter;stroke-opacity:1"
       d="M 38.1,50.799999 V 67.733332 L 21.166666,59.266666 V 42.333333 Z"
       id="path865" />
    <path
       id="path899"
       style="fill:none;stroke:#000000;stroke-width:1.88976;stroke-linecap:butt;stroke-linejoin:miter;stroke-miterlimit:4;stroke-dasharray:none;stroke-opacity:1"
       d="m 176,64 -96,96 v 64 l 64,32 96,48 32,-32 v -48 l 64,-64 V 144 L 304,128 229.33398,202.66602 208,192 240,160 V 96 Z"
       transform="scale(0.26458333)" />
    <path
       style="fill:#00ff00;stroke:#000000;stroke-width:0.264583px;stroke-linecap:butt;stroke-linejoin:miter;stroke-opacity:1"
       d="m 131.23333,50.8 25.4,-12.699999 v 16.933333 l -25.4,12.699999 z"
       id="path920"
       sodipodi:nodetypes="ccccc" />
    <path
       id="path922"
       style="fill:#00ff00;stroke:#000000;stroke-width:0.264583px;stroke-linecap:butt;stroke-linejoin:miter;stroke-opacity:1"
       d="M 139.7,50.800001 131.23333,55.033333 148.16667,63.5 V 59.266666 L 152.4,57.15 Z"
       sodipodi:nodetypes="cccccc" />
    <path
       style="fill:#00ff00;stroke:#000000;stroke-width:0.264583px;stroke-linecap:butt;stroke-linejoin:miter;stroke-opacity:1"
       d="m 131.23333,55.033334 25.4,12.699999 v 12.700001 l -25.4,-12.7 z"
       id="path924"
       sodipodi:nodetypes="ccccc" />
    <path
       style="fill:#00ff00;stroke:#000000;stroke-width:0.264583px;stroke-linecap:butt;stroke-linejoin:miter;stroke-opacity:1"
       d="M 156.63333,67.733333 165.1,63.500001 v 12.7 l -8.46667,4.233333 z"
       id="path926"
       sodipodi:nodetypes="ccccc" />
    <path
       style="fill:#00ff00;stroke:#000000;stroke-width:0.264583px;stroke-linecap:butt;stroke-linejoin:miter;stroke-opacity:1"
       d="M 148.16667,63.5 V 59.266667 L 156.63333,63.5 v 4.233333 z"
       id="path928"
       sodipodi:nodetypes="ccccc" />
    <path
       style="fill:#00ff00;stroke:#000000;stroke-width:0.264583px;stroke-linecap:butt;stroke-linejoin:miter;stroke-opacity:1"
       d="m 156.63333,63.5 25.4,-12.699999 v 4.233333 l -25.4,12.699999 z"
       id="path930"
       sodipodi:nodetypes="ccccc" />
    <path
       style="fill:#00ff00;stroke:#000000;stroke-width:0.264583px;stroke-linecap:butt;stroke-linejoin:miter;stroke-opacity:1"
       d="m 148.16667,59.266667 8.46666,4.233333 25.4,-12.699999 -8.46666,-4.233333 z"
       id="path932"
       sodipodi:nodetypes="ccccc" />
    <path
       style="fill:#00ff00;stroke:#000000;stroke-width:0.264583px;stroke-linecap:butt;stroke-linejoin:miter;stroke-opacity:1"
       d="M 131.23333,50.8 114.3,42.333334 l 25.4,-12.7 16.93333,8.466667 z"
       id="path934"
       sodipodi:nodetypes="ccccc" />
    <path
       style="fill:#00ff00;stroke:#000000;stroke-width:0.264583px;stroke-linecap:butt;stroke-linejoin:miter;stroke-opacity:1"
       d="M 131.23333,50.8 V 67.733333 L 114.3,59.266667 V 42.333334 Z"
       id="path936"
       sodipodi:nodetypes="ccccc" />
    <path
       id="path938"
       style="fill:none;stroke:#000000;stroke-width:0.5;stroke-linecap:butt;stroke-linejoin:miter;stroke-miterlimit:4;stroke-dasharray:none;stroke-opacity:1"
       d="m 139.7,29.633334 -25.4,12.699999 v 16.933333 l 16.93333,8.466667 25.4,12.7 L 165.1,76.2 V 63.5 l 16.93333,-8.466667 V 50.8 L 173.56667,46.566667 152.4,57.15 v 0 l 4.23333,-2.116667 V 38.1 Z"
       sodipodi:nodetypes="ccccccccccccccc" />
    <path
       style="fill:#00ff00;stroke:#000000;stroke-width:0.264583px;stroke-linecap:butt;stroke-linejoin:miter;stroke-opacity:1"
       d="M 127,110.06667 152.4,97.366667 V 114.3 L 127,127 Z"
       id="path952"
       sodipodi:nodetypes="ccccc" />
    <path
       id="path954"
       style="fill:#00ff00;stroke:#000000;stroke-width:0.264583px;stroke-linecap:butt;stroke-linejoin:miter;stroke-opacity:1"
       d="m 152.4,101.6 -8.46667,4.23333 16.93334,8.46667 v -4.23334 L 165.1,107.95 Z"
       sodipodi:nodetypes="cccccc" />
    <path
       style="fill:#00ff00;stroke:#000000;stroke-width:0.264583px;stroke-linecap:butt;stroke-linejoin:miter;stroke-opacity:1"
       d="m 143.93333,105.83333 25.4,12.7 v 12.7 l -25.4,-12.7 z"
       id="path956"
       sodipodi:nodetypes="ccccc" />
    <path
       style="fill:#00ff00;stroke:#000000;stroke-width:0.264583px;stroke-linecap:butt;stroke-linejoin:miter;stroke-opacity:1"
       d="M 169.33333,118.53333 177.8,114.3 V 127 l -8.46667,4.23333 z"
       id="path958"
       sodipodi:nodetypes="ccccc" />
    <path
       style="fill:#00ff00;stroke:#000000;stroke-width:0.264583px;stroke-linecap:butt;stroke-linejoin:miter;stroke-opacity:1"
       d="m 143.93334,122.76667 v -4.23334 L 152.4,122.76667 V 127 Z"
       id="path960"
       sodipodi:nodetypes="ccccc" />
    <path
       style="fill:#00ff00;stroke:#000000;stroke-width:0.264583px;stroke-linecap:butt;stroke-linejoin:miter;stroke-opacity:1"
       d="m 152.4,122.76667 25.4,-12.7 V 114.3 L 152.4,127 Z"
       id="path962"
       sodipodi:nodetypes="ccccc" />
    <path
       style="fill:#00ff00;stroke:#000000;stroke-width:0.264583px;stroke-linecap:butt;stroke-linejoin:miter;stroke-opacity:1"
       d="m 143.93334,118.53333 8.46666,4.23334 25.4,-12.7 -8.46666,-4.23334 z"
       id="path964"
       sodipodi:nodetypes="ccccc" />
    <path
       style="fill:#00ff00;stroke:#000000;stroke-width:0.264583px;stroke-linecap:butt;stroke-linejoin:miter;stroke-opacity:1"
       d="M 127,110.06667 110.06667,101.6 l 25.4,-12.7 16.93333,8.466667 z"
       id="path966"
       sodipodi:nodetypes="ccccc" />
    <path
       style="fill:#00ff00;stroke:#000000;stroke-width:0.264583px;stroke-linecap:butt;stroke-linejoin:miter;stroke-opacity:1"
       d="M 127,110.06667 V 127 l -16.93333,-8.46667 V 101.6 Z"
       id="path968"
       sodipodi:nodetypes="ccccc" />
    <path
       id="path982"
       style="fill:none;stroke:#000000;stroke-width:1.88976;stroke-linecap:butt;stroke-linejoin:miter;stroke-miterlimit:4;stroke-dasharray:none;stroke-opacity:1"
       d="m 512,336 -96,48 v 64 l 64,32 64,-32 v 16 l 32,16 16,-8 48,24 32,-16 v -48 -16 l -32,-16 -16,8 -48,-24 v -16 z"
       transform="scale(0.26458333)" />
    <path
       style="fill:#00ff00;stroke:#000000;stroke-width:0.264583px;stroke-linecap:butt;stroke-linejoin:miter;stroke-opacity:1"
       d="M 3.9999996e-8,114.3 25.4,101.6 v 16.93333 L 3.9999996e-8,131.23333 Z"
       id="path1013"
       sodipodi:nodetypes="ccccc" />
    <path
       id="path1015"
       style="fill:#00ff00;stroke:#000000;stroke-width:0.264583px;stroke-linecap:butt;stroke-linejoin:miter;stroke-opacity:1"
       d="m 25.4,105.83333 -8.46667,4.23333 38.100003,12.70002 L 63.5,118.53334 Z"
       sodipodi:nodetypes="ccccc" />
    <path
       style="fill:#00ff00;stroke:#000000;stroke-width:0.264583px;stroke-linecap:butt;stroke-linejoin:miter;stroke-opacity:1"
       d="m 16.93333,110.06666 38.1,12.70001 v 12.7 l -38.099996,-12.7 z"
       id="path1017"
       sodipodi:nodetypes="ccccc" />
    <path
       id="path1019"
       style="fill:#00ff00;stroke:#000000;stroke-width:0.999999px;stroke-linecap:butt;stroke-linejoin:miter;stroke-opacity:1"
       d="M 240 432 L 144 480 L 144 496 L 208 464 L 208 512 L 240 496 L 240 448 L 240 432 z "
       transform="scale(0.26458333)" />
    <path
       style="fill:#00ff00;stroke:#000000;stroke-width:0.264583px;stroke-linecap:butt;stroke-linejoin:miter;stroke-opacity:1"
       d="m 25.400006,127.00001 v -4.23334 L 38.1,127.00001 v 4.23333 z"
       id="path1021"
       sodipodi:nodetypes="ccccc" />
    <path
       style="fill:#00ff00;stroke:#000000;stroke-width:0.264583px;stroke-linecap:butt;stroke-linejoin:miter;stroke-opacity:1"
       d="M 25.4,122.76667 38.099994,127 63.5,114.30001 50.8,110.06667 Z"
       id="path1025"
       sodipodi:nodetypes="ccccc" />
    <path
       style="fill:#00ff00;stroke:#000000;stroke-width:0.264583px;stroke-linecap:butt;stroke-linejoin:miter;stroke-opacity:1"
       d="M 3.7333332e-7,114.3 -25.4,105.83333 3.9999996e-8,93.133334 25.4,101.6 Z"
       id="path1027"
       sodipodi:nodetypes="ccccc" />
    <path
       style="fill:#00ff00;stroke:#000000;stroke-width:0.264583px;stroke-linecap:butt;stroke-linejoin:miter;stroke-opacity:1"
       d="m 3.7333332e-7,114.3 v 16.93333 L -25.4,122.76666 v -16.93333 z"
       id="path1029"
       sodipodi:nodetypes="ccccc" />
    <path
       id="path1033"
       style="fill:none;stroke:#000000;stroke-width:0.5;stroke-linecap:butt;stroke-linejoin:miter;stroke-miterlimit:4;stroke-dasharray:none;stroke-opacity:1"
       d="m 0,93.133333 -25.4,12.699997 v 16.93334 L 0,131.23333 16.933333,122.76667 25.4,125.58872 V 127 l 12.7,4.23333 1.693436,-0.84646 15.239897,5.0798 8.466666,-4.23334 v -12.7 V 114.3 l -12.7,-4.23333 -5.079793,2.53989 L 25.4,105.83333 V 101.6 Z" />
  </g>
  <g
     inkscape:groupmode="layer"
     id="layer4"
     inkscape:label="PP mat"
     style="display:inline">
    <path
       id="path880"
       style="fill:#00ffff;fill-opacity:0.432234;stroke:none;stroke-width:0.264583;stroke-linecap:butt;stroke-linejoin:miter;stroke-miterlimit:4;stroke-dasharray:none;stroke-opacity:1"
       d="M 63.499999,25.4 38.1,50.799999 v 4.233334 l 16.933333,8.466666 v -4.233333 l 25.399999,-25.4 z m 25.4,12.7 16.933331,8.466666 v 16.933333 l -25.399998,25.4 -16.933333,-8.466667 V 63.499999 Z" />
    <path
       style="fill:#00ffff;fill-opacity:0.432234;stroke:none;stroke-width:0.264583;stroke-linecap:butt;stroke-linejoin:miter;stroke-miterlimit:4;stroke-dasharray:none;stroke-opacity:1"
       d="M 194.73333,118.53333 177.8,110.06667 l -25.4,12.7 V 127 l -8.46667,-4.23333 v -4.23334 l 25.4,-12.7 L 152.4,97.366663 127,110.06667 V 127 l 42.33333,21.16666 25.4,-12.7 z"
       id="path1011" />
    <path
       style="fill:#00ffff;fill-opacity:0.432234;stroke:none;stroke-width:0.264583;stroke-linecap:butt;stroke-linejoin:miter;stroke-miterlimit:4;stroke-dasharray:none;stroke-opacity:1"
       d="m 182.03333,50.800001 16.93333,8.466666 1e-5,17.991666 -25.4,11.641667 -16.93334,-8.466667 V 63.5 Z"
       id="path1009" />
    <path
       style="fill:#00ffff;fill-opacity:0.432234;stroke:none;stroke-width:0.264583;stroke-linecap:butt;stroke-linejoin:miter;stroke-miterlimit:4;stroke-dasharray:none;stroke-opacity:1"
       d="M 156.63333,38.100001 131.23333,50.8 v 4.233334 L 148.16667,63.5 v -4.233333 l 25.4,-12.7 z"
       id="path940" />
    <path
       style="fill:#00ffff;fill-opacity:0.432234;stroke:none;stroke-width:0.264583;stroke-linecap:butt;stroke-linejoin:miter;stroke-miterlimit:4;stroke-dasharray:none;stroke-opacity:1"
       d="M 88.899997,122.76667 63.5,114.3 38.1,127 v 4.23333 l -12.7,-4.23332 v -4.23334 l 25.4,-12.7 L 25.400004,101.6 4.04e-6,114.30001 v 16.93333 L 63.5,152.4 88.899997,139.7 Z"
       id="path1054"
       sodipodi:nodetypes="ccccccccccccc" />
  </g>
  <g
     inkscape:groupmode="layer"
     id="layer2"
     inkscape:label="PPlines"
     style="display:inline;opacity:1">
    <path
       id="path890"
       style="display:inline;fill:none;fill-opacity:0.432234;stroke:#000000;stroke-width:0.5;stroke-linecap:butt;stroke-linejoin:miter;stroke-miterlimit:4;stroke-dasharray:none;stroke-opacity:1"
       d="M 63.499999,25.4 38.1,50.799999 v 4.233334 l 16.933333,8.466666 v -4.233333 l 25.399999,-25.4 z m 25.4,12.7 16.933331,8.466666 v 16.933333 l -25.399998,25.4 -16.933333,-8.466667 V 63.499999 Z" />
    <path
       style="fill:none;stroke:#000000;stroke-width:0.264583px;stroke-linecap:butt;stroke-linejoin:miter;stroke-opacity:1"
       d="m 38.1,50.799999 16.933333,8.466667"
       id="path893" />
    <path
       style="fill:none;stroke:#000000;stroke-width:0.264583px;stroke-linecap:butt;stroke-linejoin:miter;stroke-opacity:1"
       d="m 63.499999,63.499999 16.933333,8.466667 25.399998,-25.4"
       id="path895" />
    <path
       style="fill:none;stroke:#000000;stroke-width:0.264583px;stroke-linecap:butt;stroke-linejoin:miter;stroke-opacity:1"
       d="M 80.433332,71.966666 V 88.899999"
       id="path897" />
    <path
       id="path942"
       style="display:inline;fill:none;fill-opacity:0.432234;stroke:#000000;stroke-width:0.5;stroke-linecap:butt;stroke-linejoin:miter;stroke-miterlimit:4;stroke-dasharray:none;stroke-opacity:1"
       d="M 156.63333,38.100001 131.23333,50.8 v 4.233334 L 148.16667,63.5 v -4.233333 l 25.4,-12.7 z m 25.4,12.7 16.93333,8.466666 1e-5,17.991666 -25.4,11.641667 -16.93334,-8.466667 V 63.5 Z"
       sodipodi:nodetypes="cccccccccccccc" />
    <path
       style="fill:none;stroke:#000000;stroke-width:0.264583px;stroke-linecap:butt;stroke-linejoin:miter;stroke-opacity:1"
       d="m 131.23333,50.8 16.93334,8.466667"
       id="path944"
       sodipodi:nodetypes="cc" />
    <path
       style="fill:none;stroke:#000000;stroke-width:0.264583px;stroke-linecap:butt;stroke-linejoin:miter;stroke-opacity:1"
       d="m 156.63333,63.5 16.93334,8.466667 25.39999,-12.7"
       id="path946"
       sodipodi:nodetypes="ccc" />
    <path
       style="fill:none;stroke:#000000;stroke-width:0.264583px;stroke-linecap:butt;stroke-linejoin:miter;stroke-opacity:1"
       d="M 173.56667,71.966667 V 88.9"
       id="path948"
       sodipodi:nodetypes="cc" />
    <path
       style="fill:none;stroke:#000000;stroke-width:0.264583px;stroke-linecap:butt;stroke-linejoin:miter;stroke-opacity:1"
       d="m 127,110.06667 16.93334,8.46666"
       id="path976"
       sodipodi:nodetypes="cc" />
    <path
       style="fill:none;stroke:#000000;stroke-width:0.264583px;stroke-linecap:butt;stroke-linejoin:miter;stroke-opacity:1"
       d="m 152.4,122.76667 16.93334,8.46666 25.39999,-12.7"
       id="path978"
       sodipodi:nodetypes="ccc" />
    <path
       style="fill:none;stroke:#000000;stroke-width:0.264583px;stroke-linecap:butt;stroke-linejoin:miter;stroke-opacity:1"
       d="m 169.33334,131.23333 v 16.93334"
       id="path980"
       sodipodi:nodetypes="cc" />
    <path
       style="fill:none;stroke:#000000;stroke-width:0.264583px;stroke-linecap:butt;stroke-linejoin:miter;stroke-opacity:1"
       d="M 194.73333,118.53333 177.8,110.06667 l -25.4,12.7 V 127 l -8.46667,-4.23333 v -4.23334 l 25.4,-12.7 L 152.4,97.366665 127,110.06667 V 127 l 42.33333,21.16666 25.4,-12.7 z"
       id="path1001" />
    <path
       style="fill:none;stroke:#000000;stroke-width:0.264583px;stroke-linecap:butt;stroke-linejoin:miter;stroke-opacity:1"
       d="M 3.3333333e-6,114.30001 25.40001,122.76666"
       id="path1056"
       sodipodi:nodetypes="cc" />
    <path
       style="fill:none;stroke:#000000;stroke-width:0.264583px;stroke-linecap:butt;stroke-linejoin:miter;stroke-opacity:1"
       d="m 38.1,127 25.40001,8.46667 25.39999,-12.7"
       id="path1058"
       sodipodi:nodetypes="ccc" />
    <path
       style="fill:none;stroke:#000000;stroke-width:0.264583px;stroke-linecap:butt;stroke-linejoin:miter;stroke-opacity:1"
       d="m 63.50001,135.46667 v 16.93334"
       id="path1060"
       sodipodi:nodetypes="cc" />
    <path
       style="fill:none;stroke:#000000;stroke-width:0.264583px;stroke-linecap:butt;stroke-linejoin:miter;stroke-opacity:1"
       d="M 88.9,122.76667 63.5,114.3 38.1,127 v 4.23333 L 25.4,127 v -4.23334 l 25.4,-12.7 L 25.400003,101.6 3.3333333e-6,114.30001 v 16.93333 L 63.5,152.4 88.9,139.7 Z"
       id="path1062"
       sodipodi:nodetypes="ccccccccccccc" />
    <path
       style="display:inline;fill:none;fill-opacity:0.432234;stroke:#000000;stroke-width:0.5;stroke-linecap:butt;stroke-linejoin:miter;stroke-miterlimit:4;stroke-dasharray:none;stroke-opacity:1"
       d="M 88.899997,122.76667 63.5,114.3 38.1,127 v 4.23333 l -12.7,-4.23332 v -4.23334 l 25.4,-12.7 L 25.400004,101.6 4.04e-6,114.30001 v 16.93333 L 63.5,152.4 88.899997,139.7 Z"
       id="path1064"
       sodipodi:nodetypes="ccccccccccccc" />
  </g>
</svg>
